<mxfile host="65bd71144e">
    <diagram name="Page-1" id="62fnyHK1m0Pu7734--U4">
        <mxGraphModel dx="1604" dy="2025" grid="1" gridSize="10" guides="1" tooltips="1" connect="1" arrows="1" fold="1" page="1" pageScale="1" pageWidth="827" pageHeight="1169" math="0" shadow="0">
            <root>
                <mxCell id="0"/>
                <mxCell id="1" parent="0"/>
                <mxCell id="PYmD2_3jmnPGqPoGRbsj-33" style="edgeStyle=orthogonalEdgeStyle;rounded=0;orthogonalLoop=1;jettySize=auto;html=1;entryX=0.5;entryY=1;entryDx=0;entryDy=0;endArrow=none;endFill=0;" parent="1" source="PYmD2_3jmnPGqPoGRbsj-1" target="PYmD2_3jmnPGqPoGRbsj-32" edge="1">
                    <mxGeometry relative="1" as="geometry"/>
                </mxCell>
                <mxCell id="PYmD2_3jmnPGqPoGRbsj-1" value="Vaults" style="swimlane;fontStyle=0;childLayout=stackLayout;horizontal=1;startSize=30;horizontalStack=0;resizeParent=1;resizeParentMax=0;resizeLast=0;collapsible=1;marginBottom=0;whiteSpace=wrap;html=1;" parent="1" vertex="1">
                    <mxGeometry x="170" y="150" width="140" height="150" as="geometry"/>
                </mxCell>
                <mxCell id="PYmD2_3jmnPGqPoGRbsj-2" value="&lt;u&gt;VaultId&lt;/u&gt;" style="text;strokeColor=none;fillColor=none;align=left;verticalAlign=middle;spacingLeft=4;spacingRight=4;overflow=hidden;points=[[0,0.5],[1,0.5]];portConstraint=eastwest;rotatable=0;whiteSpace=wrap;html=1;" parent="PYmD2_3jmnPGqPoGRbsj-1" vertex="1">
                    <mxGeometry y="30" width="140" height="30" as="geometry"/>
                </mxCell>
                <mxCell id="PYmD2_3jmnPGqPoGRbsj-7" value="VaultName" style="text;strokeColor=none;fillColor=none;align=left;verticalAlign=middle;spacingLeft=4;spacingRight=4;overflow=hidden;points=[[0,0.5],[1,0.5]];portConstraint=eastwest;rotatable=0;whiteSpace=wrap;html=1;" parent="PYmD2_3jmnPGqPoGRbsj-1" vertex="1">
                    <mxGeometry y="60" width="140" height="30" as="geometry"/>
                </mxCell>
                <mxCell id="4" value="VaultCreateAt" style="text;strokeColor=none;fillColor=none;align=left;verticalAlign=middle;spacingLeft=4;spacingRight=4;overflow=hidden;points=[[0,0.5],[1,0.5]];portConstraint=eastwest;rotatable=0;whiteSpace=wrap;html=1;" vertex="1" parent="PYmD2_3jmnPGqPoGRbsj-1">
                    <mxGeometry y="90" width="140" height="30" as="geometry"/>
                </mxCell>
                <mxCell id="5" value="VaultUpdateAt" style="text;strokeColor=none;fillColor=none;align=left;verticalAlign=middle;spacingLeft=4;spacingRight=4;overflow=hidden;points=[[0,0.5],[1,0.5]];portConstraint=eastwest;rotatable=0;whiteSpace=wrap;html=1;" vertex="1" parent="PYmD2_3jmnPGqPoGRbsj-1">
                    <mxGeometry y="120" width="140" height="30" as="geometry"/>
                </mxCell>
                <mxCell id="PYmD2_3jmnPGqPoGRbsj-10" value="Cards" style="swimlane;fontStyle=0;childLayout=stackLayout;horizontal=1;startSize=30;horizontalStack=0;resizeParent=1;resizeParentMax=0;resizeLast=0;collapsible=1;marginBottom=0;whiteSpace=wrap;html=1;" parent="1" vertex="1">
                    <mxGeometry x="400" y="-60" width="140" height="210" as="geometry"/>
                </mxCell>
                <mxCell id="PYmD2_3jmnPGqPoGRbsj-11" value="&lt;u&gt;CardId&lt;/u&gt;" style="text;strokeColor=none;fillColor=none;align=left;verticalAlign=middle;spacingLeft=4;spacingRight=4;overflow=hidden;points=[[0,0.5],[1,0.5]];portConstraint=eastwest;rotatable=0;whiteSpace=wrap;html=1;" parent="PYmD2_3jmnPGqPoGRbsj-10" vertex="1">
                    <mxGeometry y="30" width="140" height="30" as="geometry"/>
                </mxCell>
                <mxCell id="PYmD2_3jmnPGqPoGRbsj-13" value="CardTitle" style="text;strokeColor=none;fillColor=none;align=left;verticalAlign=middle;spacingLeft=4;spacingRight=4;overflow=hidden;points=[[0,0.5],[1,0.5]];portConstraint=eastwest;rotatable=0;whiteSpace=wrap;html=1;" parent="PYmD2_3jmnPGqPoGRbsj-10" vertex="1">
                    <mxGeometry y="60" width="140" height="30" as="geometry"/>
                </mxCell>
                <mxCell id="PYmD2_3jmnPGqPoGRbsj-22" value="CardLogin" style="text;strokeColor=none;fillColor=none;align=left;verticalAlign=middle;spacingLeft=4;spacingRight=4;overflow=hidden;points=[[0,0.5],[1,0.5]];portConstraint=eastwest;rotatable=0;whiteSpace=wrap;html=1;" parent="PYmD2_3jmnPGqPoGRbsj-10" vertex="1">
                    <mxGeometry y="90" width="140" height="30" as="geometry"/>
                </mxCell>
                <mxCell id="PYmD2_3jmnPGqPoGRbsj-23" value="CardPassword" style="text;strokeColor=none;fillColor=none;align=left;verticalAlign=middle;spacingLeft=4;spacingRight=4;overflow=hidden;points=[[0,0.5],[1,0.5]];portConstraint=eastwest;rotatable=0;whiteSpace=wrap;html=1;" parent="PYmD2_3jmnPGqPoGRbsj-10" vertex="1">
                    <mxGeometry y="120" width="140" height="30" as="geometry"/>
                </mxCell>
                <mxCell id="6" value="CardCreateAt" style="text;strokeColor=none;fillColor=none;align=left;verticalAlign=middle;spacingLeft=4;spacingRight=4;overflow=hidden;points=[[0,0.5],[1,0.5]];portConstraint=eastwest;rotatable=0;whiteSpace=wrap;html=1;" vertex="1" parent="PYmD2_3jmnPGqPoGRbsj-10">
                    <mxGeometry y="150" width="140" height="30" as="geometry"/>
                </mxCell>
                <mxCell id="7" value="CardUpdateAt" style="text;strokeColor=none;fillColor=none;align=left;verticalAlign=middle;spacingLeft=4;spacingRight=4;overflow=hidden;points=[[0,0.5],[1,0.5]];portConstraint=eastwest;rotatable=0;whiteSpace=wrap;html=1;" vertex="1" parent="PYmD2_3jmnPGqPoGRbsj-10">
                    <mxGeometry y="180" width="140" height="30" as="geometry"/>
                </mxCell>
                <mxCell id="PYmD2_3jmnPGqPoGRbsj-15" value="Users" style="swimlane;fontStyle=0;childLayout=stackLayout;horizontal=1;startSize=30;horizontalStack=0;resizeParent=1;resizeParentMax=0;resizeLast=0;collapsible=1;marginBottom=0;whiteSpace=wrap;html=1;" parent="1" vertex="1">
                    <mxGeometry x="360" y="290" width="140" height="210" as="geometry"/>
                </mxCell>
                <mxCell id="PYmD2_3jmnPGqPoGRbsj-16" value="&lt;u&gt;UserId&lt;/u&gt;" style="text;strokeColor=none;fillColor=none;align=left;verticalAlign=middle;spacingLeft=4;spacingRight=4;overflow=hidden;points=[[0,0.5],[1,0.5]];portConstraint=eastwest;rotatable=0;whiteSpace=wrap;html=1;" parent="PYmD2_3jmnPGqPoGRbsj-15" vertex="1">
                    <mxGeometry y="30" width="140" height="30" as="geometry"/>
                </mxCell>
                <mxCell id="PYmD2_3jmnPGqPoGRbsj-17" value="UserPseudo" style="text;strokeColor=none;fillColor=none;align=left;verticalAlign=middle;spacingLeft=4;spacingRight=4;overflow=hidden;points=[[0,0.5],[1,0.5]];portConstraint=eastwest;rotatable=0;whiteSpace=wrap;html=1;" parent="PYmD2_3jmnPGqPoGRbsj-15" vertex="1">
                    <mxGeometry y="60" width="140" height="30" as="geometry"/>
                </mxCell>
                <mxCell id="PYmD2_3jmnPGqPoGRbsj-18" value="UserEmail" style="text;strokeColor=none;fillColor=none;align=left;verticalAlign=middle;spacingLeft=4;spacingRight=4;overflow=hidden;points=[[0,0.5],[1,0.5]];portConstraint=eastwest;rotatable=0;whiteSpace=wrap;html=1;" parent="PYmD2_3jmnPGqPoGRbsj-15" vertex="1">
                    <mxGeometry y="90" width="140" height="30" as="geometry"/>
                </mxCell>
                <mxCell id="PYmD2_3jmnPGqPoGRbsj-41" value="&lt;div&gt;UserPassword&lt;/div&gt;" style="text;strokeColor=none;fillColor=none;align=left;verticalAlign=middle;spacingLeft=4;spacingRight=4;overflow=hidden;points=[[0,0.5],[1,0.5]];portConstraint=eastwest;rotatable=0;whiteSpace=wrap;html=1;" parent="PYmD2_3jmnPGqPoGRbsj-15" vertex="1">
                    <mxGeometry y="120" width="140" height="30" as="geometry"/>
                </mxCell>
                <mxCell id="2" value="UserCreateAt" style="text;strokeColor=none;fillColor=none;align=left;verticalAlign=middle;spacingLeft=4;spacingRight=4;overflow=hidden;points=[[0,0.5],[1,0.5]];portConstraint=eastwest;rotatable=0;whiteSpace=wrap;html=1;" vertex="1" parent="PYmD2_3jmnPGqPoGRbsj-15">
                    <mxGeometry y="150" width="140" height="30" as="geometry"/>
                </mxCell>
                <mxCell id="3" value="UserUpdateAt" style="text;strokeColor=none;fillColor=none;align=left;verticalAlign=middle;spacingLeft=4;spacingRight=4;overflow=hidden;points=[[0,0.5],[1,0.5]];portConstraint=eastwest;rotatable=0;whiteSpace=wrap;html=1;" vertex="1" parent="PYmD2_3jmnPGqPoGRbsj-15">
                    <mxGeometry y="180" width="140" height="30" as="geometry"/>
                </mxCell>
                <mxCell id="ChiUcgrbl0a5pJrSPQLk-1" style="rounded=0;orthogonalLoop=1;jettySize=auto;html=1;endArrow=none;endFill=0;" parent="1" source="PYmD2_3jmnPGqPoGRbsj-27" target="PYmD2_3jmnPGqPoGRbsj-1" edge="1">
                    <mxGeometry relative="1" as="geometry"/>
                </mxCell>
                <mxCell id="PYmD2_3jmnPGqPoGRbsj-27" value="Administrer" style="ellipse;whiteSpace=wrap;html=1;" parent="1" vertex="1">
                    <mxGeometry x="370" y="179.99576030000281" width="120" height="80" as="geometry"/>
                </mxCell>
                <mxCell id="PYmD2_3jmnPGqPoGRbsj-28" style="edgeStyle=orthogonalEdgeStyle;rounded=0;orthogonalLoop=1;jettySize=auto;html=1;entryX=0.542;entryY=0.008;entryDx=0;entryDy=0;entryPerimeter=0;endArrow=none;endFill=0;" parent="1" source="PYmD2_3jmnPGqPoGRbsj-27" target="PYmD2_3jmnPGqPoGRbsj-15" edge="1">
                    <mxGeometry relative="1" as="geometry">
                        <Array as="points">
                            <mxPoint x="436" y="250"/>
                        </Array>
                    </mxGeometry>
                </mxCell>
                <mxCell id="PYmD2_3jmnPGqPoGRbsj-31" style="rounded=0;orthogonalLoop=1;jettySize=auto;html=1;endArrow=none;endFill=0;" parent="1" source="PYmD2_3jmnPGqPoGRbsj-29" edge="1">
                    <mxGeometry relative="1" as="geometry">
                        <mxPoint x="230" y="300" as="targetPoint"/>
                    </mxGeometry>
                </mxCell>
                <mxCell id="PYmD2_3jmnPGqPoGRbsj-34" style="rounded=0;orthogonalLoop=1;jettySize=auto;html=1;endArrow=none;endFill=0;" parent="1" source="PYmD2_3jmnPGqPoGRbsj-32" target="PYmD2_3jmnPGqPoGRbsj-10" edge="1">
                    <mxGeometry relative="1" as="geometry"/>
                </mxCell>
                <mxCell id="PYmD2_3jmnPGqPoGRbsj-32" value="&lt;div&gt;Contenir&lt;/div&gt;" style="ellipse;whiteSpace=wrap;html=1;" parent="1" vertex="1">
                    <mxGeometry x="180" y="20" width="120" height="80" as="geometry"/>
                </mxCell>
                <mxCell id="PYmD2_3jmnPGqPoGRbsj-35" value="&lt;div&gt;1,1&lt;/div&gt;" style="text;html=1;align=center;verticalAlign=middle;resizable=0;points=[];autosize=1;strokeColor=none;fillColor=none;" parent="1" vertex="1">
                    <mxGeometry x="360" y="20" width="40" height="30" as="geometry"/>
                </mxCell>
                <mxCell id="PYmD2_3jmnPGqPoGRbsj-36" value="&lt;div&gt;0,n&lt;/div&gt;" style="text;html=1;align=center;verticalAlign=middle;resizable=0;points=[];autosize=1;strokeColor=none;fillColor=none;" parent="1" vertex="1">
                    <mxGeometry x="200" y="120" width="40" height="30" as="geometry"/>
                </mxCell>
                <mxCell id="PYmD2_3jmnPGqPoGRbsj-37" value="0,n" style="text;html=1;align=center;verticalAlign=middle;resizable=0;points=[];autosize=1;strokeColor=none;fillColor=none;" parent="1" vertex="1">
                    <mxGeometry x="230" y="300" width="40" height="30" as="geometry"/>
                </mxCell>
                <mxCell id="PYmD2_3jmnPGqPoGRbsj-38" value="0,n" style="text;html=1;align=center;verticalAlign=middle;resizable=0;points=[];autosize=1;strokeColor=none;fillColor=none;" parent="1" vertex="1">
                    <mxGeometry x="320" y="335" width="40" height="30" as="geometry"/>
                </mxCell>
                <mxCell id="PYmD2_3jmnPGqPoGRbsj-39" value="0,n" style="text;html=1;align=center;verticalAlign=middle;resizable=0;points=[];autosize=1;strokeColor=none;fillColor=none;" parent="1" vertex="1">
                    <mxGeometry x="430" y="260" width="40" height="30" as="geometry"/>
                </mxCell>
                <mxCell id="PYmD2_3jmnPGqPoGRbsj-40" value="1,1" style="text;html=1;align=center;verticalAlign=middle;resizable=0;points=[];autosize=1;strokeColor=none;fillColor=none;" parent="1" vertex="1">
                    <mxGeometry x="310" y="180" width="40" height="30" as="geometry"/>
                </mxCell>
                <mxCell id="PYmD2_3jmnPGqPoGRbsj-29" value="&lt;div&gt;Possede&lt;/div&gt;" style="ellipse;whiteSpace=wrap;html=1;" parent="1" vertex="1">
                    <mxGeometry x="150" y="380" width="140" height="80" as="geometry"/>
                </mxCell>
                <mxCell id="PYmD2_3jmnPGqPoGRbsj-30" style="rounded=0;orthogonalLoop=1;jettySize=auto;html=1;entryX=0;entryY=0.5;entryDx=0;entryDy=0;endArrow=none;endFill=0;exitX=1;exitY=0.5;exitDx=0;exitDy=0;" parent="1" source="PYmD2_3jmnPGqPoGRbsj-29" target="PYmD2_3jmnPGqPoGRbsj-17" edge="1">
                    <mxGeometry relative="1" as="geometry"/>
                </mxCell>
                <mxCell id="8" value="" style="shape=image;verticalLabelPosition=bottom;labelBackgroundColor=default;verticalAlign=top;aspect=fixed;imageAspect=0;image=data:image/png,iVBORw0KGgoAAAANSUhEUgAABA8AAAGTCAYAAABH3DtEAAAAAXNSR0IArs4c6QAAAARnQU1BAACxjwv8YQUAAAAJcEhZcwAADsMAAA7DAcdvqGQAANSsSURBVHhe7L0JvFZV2fe/faPPY05/rcghFKcQZwUFREwl1JRQwyGxRxTNfMSxF4e0RFGyTFEpxScccAgMnMlMJZEENZUox3w0jRwyzdRMq1d9uv/7u86+Nuvss6f73Pu+zznw+34+69z77LX32mu41rzWtVaqhQRCCCGEEEIIIYQQGfyf6FcIIYQQQgghhBAiFQ0eCCGEEEIIIYQQIhcNHgghhBBCCCGEECIXDR4IIYQQQgghhBAiFw0eCCGEEEIIIYQQIhcNHgghhBBCCCGEECIXDR4IIYQQQgghhBAiFw0eCCGEEEIIIYQQIhcNHgghhBBCCCGEECIXDR4IIYQQQgghhBAiFw0eCCGEEEIIIYQQIhcNHgghhBBCCCGEECIXDR4IIYQQQgghhBAiFw0eCCGEEEIIIYQQIhcNHgghhBBCCCGEECIXDR4IIYQQQgghhBAiFw0eCCGEEEIIIYQQIhcNHgghhBBCCCGEECIXDR4IIYQQQgghhBAiFw0eCCGEEEIIIYQQIhcNHgghhBBCCCGEECIXDR4IIYQQQgghhBAiFw0eCCGEEEIIIYQQIhcNHgghhBBCCCGEECIXDR4IIYQQQgghhBAiFw0eCCGEEEIIIYQQIhcNHgghhBBCCCGEECIXDR4IIYQQQgghhBAiFw0eCCGEEEIIIYQQIhcNHgghhBBCCCGEECIXDR4IIYQQQgghhBAil5VqIdF1y/n73/8eLFq0KPjVr34VLF26NHj77bcjmyDo06dPsOGGGwZ77LFHsP3220d3ex6nnHJK8Nxzz7nruXPnut9m8vOf/zy44oorgn79+gUXXXRRdDedFSH+r7322uDWW29115MmTeoQFt9+9OjRwRFHHOGuO8O+++7rfsvEfZX8+c9/DhYuXBg88sgjwUsvvRT861//imza/LLRRhsFBxxwQLDOOutEd3seWfnI4rxRkI3HH3+8UBbIM9dff30wdOjQXFlKk7WeAHL08MMPu/LglVdeie4GwVprreXKgyFDhgR77713dLfnUZRGvjz11DRM4oepFXVQ1awI5Vte3fGb3/wmOPvss6P/irG6e+utt+7ReVVk05V1zfPPPx/ce++9wR/+8Ie4ToaVV1452GCDDYLBgwcHX/ziF4PVV189sulZ+PmtbJtwRSijykDczZs3LzjttNOiO62DNOP7gCzOmTPHXddDV/q/x8HgQVcwY8aM2v77718LK7ha7969a2FiM4gRm9VWW6223nrr1cLGam3ChAm1sJCK3uxZhAVpHKZmQxwNGjTIfSvMONHddFaU+D/11FPjMN1zzz3R3WX49lw3grlDmreCd999t3bBBRfUhg8fXuvfv38t7ODVevXqFfsDw72+ffu6Z3iWd3oiWfnID2sjBtkokoUHHnjA5Rnis0iW0uy7M4Rt7NixtYEDB7p8T/63sGAoHygnKC94jud7IkVp5Ie5p6VhFn6YehIrUvlm4UmrO5BDP8xFxupu8uqxxx7bY+NEZNMVdQ1tQNqCu+yyi8tz5D1f7sib3COvUk/SxuyJ+PktrR3gsyKVUXkQpokTJ7r+wm677RbdbR18n/aJxTlpcNddd0W2xXS1/3siLV95wMzd6aef7kYu//jHPwYfffSRGzVllHyTTTZxz7z33nvBE088Efzyl790I3hh5gt22GGH4PLLLw8+97nPuWd6CszUMRoJzY7qr33ta8F1113nZjGYHV111VUjm2WsaPHPCOKFF17orsNKIdhzzz3dteHbhxVF8P3vf99dd4aVVlrJ/TLyzmqOZsLoP35/9NFHgz/96U9upJU02mabbYK1117bPfP666+7dGR1CYQNSjcTdckll/S4WYGsfLTZZptFVx35y1/+Eq+mQYbDysVdpxE2dILbb789VxYOPfTQ4KabbnJ5pkiW0uy7K4STUfqnn37a5XdmLgcNGhRsu+220ROBW5Vx//33u/hE1rbccsvgvPPO63Ezm0VpZHkYelIa5uGHqcXVfadZ0cq3vLqDunqvvfZy18QDs7t5+LPBq622WvCVr3ylR8aJyKbVdQ0rWr/73e8GTz31lKsDqE+pI8iPyBi88MILTnaRv7DzFoQd5uDrX/+682tPws9veW3CFa2MyoM4+NKXvuTaXK1o/yaZNWtW8NWvftVdkw60Y4jnu+66y90roqv93yNh8KBVMLpz1FFHxbNaYSO1NmXKlNrDDz9cCzNi7Y033nDm1VdfrYWN1drs2bNrw4YNc88ykrTHHnvUXnvttci1ngEzCfi/2VHNKBsjnGHGqYWdrOhue1bE+C8aofftuW4Ec4c0bybMAJAWNsK9/fbbu7RavHhxbenSpXE6cs296dOnu7TmWdIeGehpZOWjhQsXZpoxY8bE73Cd9oyZsEFUCzvPtblz5zrDdRLfD0WylGbfHWEmhFlK/EzZQRjmz5/vwm9yhOH/sFHlVh1YGJnZ7GkrEIrSyOyy7HsiJtOYnsCKWL6ZzKXVHcih2W+xxRap5ZdvSGc/nxInP/rRjyLXxPJAK+sa2paU9fa90aNHu7qANiJtRcuPtCGRv0mTJrm6hGepWy677LLIpZ6Bn9+y2oQrYhmVhx9nzW7/pjF06FD3beKYlQMWz6RTGbra/z2Rlg4eXHLJJS5BLZGp5Gi0Z/HBBx+4jNevXz/3DhmVZXg9iaxOT5UwKGDbFQ466CAXb2msiPFfVMn69lkVRVnMnWYXPnSErdJicIfBn6w0h/fee8+ltVXoyEBPW1LYmXxUZdqC74ciWUqz727Q8fcHDqZOneoag3nQQKTxaOHceeedXfnTUyhKI7PLshfNZ0Us30zm0uoO5DDPPo1kPt1xxx0jG7E80Kq6hskia1tixo8fnzqw7kOn+Tvf+U78Dkv2lyxZEtl2f/z8ltVuWBHLqDw6U0ZVBQMEFq8HHHCA6+eYX84444zoqXy60v89lZadtoBCkUsvvdQtiQeWAqFUZc0113T/p/Hxj388GDhwYDB58mT3P8uFf/KTnzi3xDJuvPHGICyc3TWK5Yi3JIr/5QOWD/70pz91acHSQdKUJf1paW6wfYW0Pvroo93/yMC0adPctVhxOffcc91yS0A2xo4d65ZV5rHpppu67QrIHrCVhO0MQlSByrdqIJ8ed9xx0X9B8OSTT6reFnWD8m1rW4adZLdMf4sttnD/Z8H2QPIizwPbY1lWvrygMqp7wZZTU1C5++67BwcffLDbugCzZ892W7VF9bRM5wGaMGmsAoXK3XffnbonP433338/2GWXXdzvVltt5Tq+tj/fByHBXfZlLe3E6QGm8RgNq2hGpeBcvHhxvO8fwUxqXkU7J3ulf/e737nnENrNN9882H///d13yug8MA2fTz/9dOxn3CmruZa9Z4899pj7Ht9KK8SW1/inQYR+Bz/u0G77hS98we15Ktob6NufWqDzgErjvvvui/eU4if2ftPpQotuK3Qe7Lbbbk4XBXzjG98ILr74YnddBipx4p50YG/elClTUuWKOLV0rFdzMLJsmorRAr3aaqsFP/7xj2MtuMjBmDFjnDz5VJGPktSTtpB18oad9MC+RZMx/GM6FOZGGuyLZM3HZMmPX+IGeWqFVma+TxgtbxH/7FEtC3tZcQP//td//ZdLpzR4ho4L5UG9pzdYvCNzaKAnfXy9C8jwscce206GGy0PqtZ5gH9uueUW5x8//PipTNluJMueZP7IO9Un77SF5HuU4fiXPaDm32Q510xaUb4h6w899FCntMV3tnxLpl89dYe/B7ueuoX6Gv8ZlF8777xz9N8yGsmjBm7gLyu/oZnvo3vmhhtucNeHHXZYcNBBB7nrJL58+2V6El9T+8yZMzukfSP5uCvKsSrAD0we2QDznXfeGYwcOdJdl4GJpvHjxzs5R36//e1vRzbtaUT+OhO3aWUc+ZZ2NHXvww8/nKvzoJllVGfawBYe2mt+edaZOqbedLDyEF0BVi7xvA0cZeU53qO95/cTeA9ZyesjJCHs2223XfDiiy+69EbvBhMgxNOCBQuc7g3ixq8DfTrrfxHC4EEr2HjjjeNlIVdeeWV0tzwsC2I/VViYuiVASdiXhYZXNJ6idTMUpPh7GJYJsUQ3zACZy4XsWZYqsSeJ521pEu7ts88+0ZNtsF8Y9/iePccv/3MfP4WZN3Y3DXODb/l+xp1QiGPNtWGhEL3RHpYe23thJojudmR5jH++iQbbZNwRb+zRI25xy+6HlWz05jJ8e67TYFk22zVwE7fteb7Jt8MK1aWP3SfNmwHf8MMZFryRTXnYq0hasqw1bZkd+xOJ00022cSF1eLfDPdYhkiY0/a7E8f27HXXXef2BSIPdg85mDx5cvR0G1XkozTKpK1P1vP+t9OM4b+fJmtAGrIf2WTJj1/ixuKWMDcT/GDfZQlmvSA/6EZg3yvLVJP44SSPEDb7HgY5Jn2xR4N3Ghbv/CKXyKTJP/FGmfbXv/41erqa8sDssuzrgXIO/5CmyfDjJ8pK4j6rbIesssfPH8RNXv6w+2l2/nv4gzKcePb9a+UcYWmmXDa7fCMukTXijDTx4xNDnPrpkqbfp97yrYq6w/9mmn0e9h4mKc9V5FE/fDzrl2f++zzDs0k6+z5yaM/llV9+nCfbDz58h2fCTksHuWk0H1se47dV5VgVhB3x+BthRzS13ZdH2Cl0+ZGtr2l5uQr5qzdu+WZaGcc192h3hp3N+L7fDgDe99Ok6jLK/27ZNrCFx5d1TBnZhEbSwS+b0kwy/sjDVgbjph+XXPN9q9PKcMcdd8Tx45+S4G9d2HvvvaO7HanX/2IZ5VviDYBw+pVCWmOzEdhPhWDbN4YNG+b2ZqG4BcM1hZ99n4yWtgfL7LfaaiuXgXgH4cGNvfbaq/aDH/wgerKjorHRo0fH3+P73MdP6667buxuEo5TNDfI6GTgND8Trn333Te18j3ppJNi95988snobnuWx/in0OSb9g7ftO+RFlYQ4ZY9k1bJ4r7ZpxUUxDmFuBWopJOFjefxI+GmEWnu1NvAKwtKd+wbfLdqaCTRQMJ94o84t/jHIJ9WQRHmtP3ufmHMXkmes7TBLa59hZ5V5KMsitI2Sdbz11xzjfNPn0jhEcbPq4b/fpqskQ+RE8LJM6ShL0vEN/eJM8LczI7a+uuvH/t15syZ0d1qQCaS4fTji7Ba2mKQqbQBRWsYkvbW2bP4wr1x48bFja+qygOzy7IvizVkzS38Q7jxj18e4i/iKq1xl1b2WDziFh0d7ic7wknsfpqdxTEGfyB7vlz6fsUQx81Smtvs8u3EE0+M44lfv6zBkP9MZvmlw5qknvKtqrrD/2Y9dQsyZe9h/Hq/qjz6zW9+Mw6fLzcY3LP45hmeTdLZ9+mYmh1lWRq0MbA3w/NpMAhuzyQnYKrIx11RjlUBnU77xpFHHhndrYauqCOs/iXP2Tf9tORd5Ix2jX0Xe59ml1Hmdj1tYAtPUjatfsiTzUbT4YUXXnDP8Y49QzvJ3r/vvvuiJ5eVh7hhbvnfMvnGjrSkbVjEgQceGH+XAQMD3U32HeIxrb8B9fhftKclgwfMUPkJUzV+wpNpbKSTyhLDNbPmCKc9d8opp0RvL8PsyIz4k3dMm6w/w4Yg+p3+q6++up12cr7PKQZkBMvYmCSmIRQ3GO1kJNLcMD/7BQCjbElsRQFuJEcxjeUt/imEfCU+ZHK+ad8jLdB8ixt+/KdVshSOZp+sKAAt1da4IS1IJwsbfsOPhNn/Tj0NvHo488wz428ccsgh0d1qIE6tQYKsoTwvTZsyo+ZUMDxHmJMy6Td0safCs7TBLa5NTqvKR1kUpW2SrOdpqOKfAQMGxPYM/Jk/Df/9NFmjMWbhQGaQHV+WiG8LL880s6PmxycVaJWQZ8x9Gh6E0y/bTA7It+aHNIVu1jDELeKEmV6LL9zDQJXlgdll2ZcBuabxgxv4mzTFP5aXrDy0chM/pQ0O+2UPfvfrCNxi9go5Mv+aSZJnZ3GMwR9JuTS/Wj2EKdOo6wzNLN9IE2tMWlz6ZQ2G/IecWP7j+WT+q6d8q6ru8L9Ztm5BlvzOH9/3qSKPEjf+jL0vNxjcI8wW7zzrx2ej7++3337uPuFI6xwgp9j7Ju05X+7IU0ZV+bgryrEq8DuNyEuVtLqOADqu9k3aonzTT0vaNvjFj9tku6GZZRSY2/iBdPb96LeByQcmK1my6dcPuIdsJmk0HSjreI72kNnTTrL3/dUqvsJ2vkV8+9/y5ZtnaBvmTaAQB1Y2EAf41cfKB0xafwPq8b9oT0sGDy6//PJ2CVM1FCAIHIZMkwUzAuYPf4mLYXaY0047LbrbEWYk7DkqqDQBo8PBqKfvZhIEnvvbbLNNZsd/2rRp7jk6bBdeeGF0tw1GEi3js9Qni+Ut/pkptXBTCZDJkxCfFIy+m2mVbFaH0fA71PPmzUtNJ8LsN67LNvDqxR9lPfnkk6O71UDBzTFgFMYspUV+szj//PNjfyRnavyGLiavYVNVPsqiKG2TFD1vDRVMkSwl7akE/YozK58Q3hNOOCF2Z+LEiZFNdSRnJLPKns5y3HHHxQNMCxYsiO52hHxrDQXyVxI/vikvsiryKsuDIvsy+IOppGVWXqLhZOUG4U+uAPHLHjR1Z5U9yJN9D5Mkz86PY9IsSy6vv/76+DlmqppBM8s3OhWEj7g899xzM2We+5R/5o9FixZFNm0gE2aHyZORquoO/5tFdQsNasoaf8UDhnaETxV5lLgx94855pjobnsIM4MY1Ct8z4/PRt9nVYC9nzagxRJv7Pz4TXtuu+22c3aE0y9jqsrHXVGOVYG/2u/OO++M7lZDq+sI6jzraPJd2jtp4Bd7DpNsBzSzjAJzG5PXBqZdYLKSJ5t+/UD8JTvjVaVDURlFuWQDccQvAxJpIN+zZs2K3dp1110jm474+Z8yO8nNN98c2zMQkRzU86mnjBVttOS0hVdffTW6atPgXzUoSkG5DCYU0OhuR8ICProKgn/+85/RVTpf/vKXo6v2oKAjFEp3HWaCIOzYpCoe5BSDMFNH/6VjioFefvllp+wkjbCwckrcrr766g5KyZ599lmn8RW23XZb95vG8hT/MGPGjDjcaJTuHSmu8yGcaF0NC7zoTv0sXLjQxTEMGTIkCAuy1PgjzIceemj0X/NAgZFRdTqGhWsQNkqcdtrzzz8/9xSObbbZJroKgn/84x/RVUfIH2kKuqDKfNQTQHlU2LBx18hsVj4hvBMmTIj+C5yyn6rxlSFB1bKEMkXKKxTwDR06NLrbEfLtZz7zGXdtZWEWKArLUvDaqvKgDMg1mrgBuSYts/ISGvFRuAWEf86cOe4a/LKHsKP0Kqvs+eY3vxn91xjUNVlyOWrUqOgqCMJGWHRVLc0s3yi7kUnq0rBjnek+9z/3uc9F/7UpHcwir3xrVt0RdoKc8q8s89WvfjU4/fTTXTlu5c1ee+3l0tanijzqx82SJUvapZ9BmFGUh3/4XthRiWwaf99vI4SdouhqGQ8//LD7JV5IK0CxtE/Y8Y/TieesjKkqHyfpKeUYoETOSJPdRmh1HUGahB1sd01eyDoxAr98/vOfj/7rSDPLqCR5bWCUtCIrYUc+VzYpXw4//HB3Tfyh9NKnGemQRtg5d8oigfhHEWcaxCn50PI5SrLTygW47rrroqvAtR+TIA+WT1D6aflZVENLBg+yGiRVMWzYMKddE+NDBYA2TbSIXn755cHXvva1yKaYrbfeOrpqD9qArVAlA6QV8MZWW23VrrJLgr+BQm38+PHO4E/T+gu4j4ZTnqWS8nniiSeiqyBYY401oquOLE/xD75W1MGDB7vrNChQhw8fHv1XPw888EBcmVMQ5VUWrRg8aGaDgbgiHffYY492gwNA4U06ouEazcMMFpVh/fXXz6zMq8xHPQH/OMO1117bxWeWeeutt+K0Rnsw+ahKml0eID/IEh3OZJ4hfHSs0IpNeYfG+zIgA1m0qjwoA3JtjVTkuiiu/U455Y3hlz2U/3llz2677RZ3jhphxx13jK46ktU4rZJmlm+kAzJJXDJQ6kMHErlEJtG8XbaRmVe+NavuQLbwX5aZP3++05jOwAEdi7Fjx7oyO1m+VpFHmQwwueObDFyg/Z56gjg16KhRr/A93x+Nvk862oTEr3/963blJP63fMjAm3VW6Iz4LFiwIO4MfelLX3K/UFU+TtJTyjFo5skqra4j7HQE8NMqCX7J67S3YtDGyGoDkzc4pQlII9oLxFmW4QQZY/HixdFVG81IhzQYPDA4rSvpR98wQLrZZpu5Z8mbjz/+uLv2wV+UGUB+oYxNQj5hIMKgDyKqoyWDB5/97Gejq/yZykZB8KgoqYAQGo7vQegZiedYm7wR4SRZjQIbpYb+/ftHV+mQGS0TpDF58uS4MKLiuOGGG5w/8TP+pyFDxzur8/C3v/0tugrccSVZLE/xT0fWZlTyGm9G3oqMIvwGTF7FBDRkqmjA5+FX5s1MR2QO2TM5pFHH9cSJE4OpU6e6I7/K8IlPfCK66kiV+agn8Nprr0VXQXDmmWe6+Mwz77zzjnuWypOGbJWQb3yqHpwwyKtU2JQHzJYhS4SNWTrKPso7a6AXscoqq0RX7WlleVAGv3FWJNdAA8cGxvy44ChBg2Oy8iDMyTTtDFlx3CpaUb4h63ROkUlm5JBJViIgl8gkR6MxYFeGvPKtWXUHAwLIS5ahMz169Gh3xByrLM4666wOg8E+jeRROvI8g58opxi4uOaaa1w9QZziHu0BGvppNPo+4F+gDPBXFXDUMBCvdMJY+QGUw37aWJuE53baaSd3DVXl4yQ9pRwDm2kG81vVtKKOAD9P501Mgb9CNkmr2mCQJQOsHLSByTfffNPFV56hLWc888wz0VV7qkyHNFhdbbBCOenHpGEw0EgOeAArMm3Qj8HBrMHtQw45JLpqW91EH0VURLR9oamgkItPYdiHVzXsZbHjP8KKuN2eJUxYObk9aaFQxvfS9rX472TBHm97Jm1fdJLjjz8+003297CXlf1tST9jwsrVKU1DKVPa0SV5e6x9lqf49/dJprmR5LbbboufT4sjPw6T6ckeurx3k4SNNPdsGX91Bn+vYzP2HbMvkH2eyByy5++ZxZCuw4YNc/Jq95JxRjyZXV48VJmPsshL2zSKnic8Zl8kS0l7u98ZU0b26qVPtH8RY9rhq4Tyanh0vBlyY/szzYQNbSdrvj+SFMU3VF0emF2WfRG+Qq0yMgd+OI0yYfdJc8Ow+2l29XzHnisTz52h2eUb+33tOGFkknrJvodBFqlrKePsXjJO+N/s8uKhyrrD/yZ6acLOdKZBSRr7uZPKw9KoIo+GHQqn6JY4S8Yn7tEeGDhwYO2ggw5KVX7W6PuE154n7xmmMX/EiBHuf/85NOYD7Rar41Cu5lNVPoYyeazqcqwKUAho3wg7kNHd6mhVHQG+bBXx3nvvxc8m077ZZZS5jcnCLw86Y5JUkQ6+n9Lk10+nek0yDci3lAtmz2koo0aNSjWEy3cr7QQdKPK/6EhLVh4wkhoKnrtmBDOs5Nx1PfAOI1KMjiVHj9gTx4g1s/cs4dlyyy3dcr1JkyYFYUXhRuCnTZsWnHbaadEbnSdve0AaYRxHVx1hRpVRs/POO8/t6ZsyZYqbNbARbJZ1szQnFGw3c0/YO8PyFP+rr756dFWOf//739FV/dT7rby0rgKbPQFGYzszY2yjyyxFY7TZwC32WTITg8wxss1+XtKcdJw1a5aT0UsvvTQ44IADorc6T5X5qCcRVs5uf2E9Jm8mpLOEFWR0lb5fuAjkhZlbZgZZqeKDbFFeMZPIPkdmzpnJQI4o4wgT+yyZFfVntzpDK8uDMvzHf/xHdCXqpZnlG3UWK+DY88uqJ2b19tlnHzdDj1wik8yIIc95q/jK0qy6A3dZZpxl0K/AMv+wcR29kU5VeZQZv6985SuuXqCeJz7RsUB7gzqEvcbMIoadXRf/ybZHo+8zi2xtGyvHkBtb6jxy5Ej3y3OUvWBbyPi1GfXkUvVW5+PuVo4B8mTMmzcvuqoP8iIz36z28fNzK+sIyFsllCQvbptZRnUG0oi4qsf4tDodgD5B0k955ogjjojebIPtWZQLBqtKktu3zBAuH/RsNRrnIiKstFoCI1d8DnPSSSdFd8vDO4wSMzoWZrzobvsjmBhdZBQ7zNTxESCMIhqMWJkf0kaXzA6ThT/ie+CBB0Z3s2F0sshNg1F4Zg3CCtKtSGDEjVE/e5+wEwYDe7NL0yLss7zEP+7ZM2gDLoIRc3s+bWTaj0OuffzZ7rDAj+5mY7MYzRq5ZKWKLw9pR3cWgWZp0ovRWrTRGoyo24gz3+CILI4GQlsv6ci3DezMD8k4KzuC28x8ZOSlbRpFzxMesy+SpaS93SePdAfCRkPsJ2SiXpA9wsIMQNigiu625fGtIi3zGOLEZkORI8o4H1a52LNJiuIbqi4PzC7Lvog53pFPhx9+eHQ3Hys/MQbnqts98lsRdmSv74Zh99PsysSxYc/1xPLNr/9YXRA2KuMZeuTS57jjjoufTcYJ/5tdXjxUWXeU/WZZqsyjSYhP6g3iF63prDb05Ts5w5+kM+9b2lIeodWds9nt+WeffTZ6quZWIXBv/fXXd//jtr2XlIGq8jGUyWNVl2NVQNwRN3wD+SRu64HniRNWMbLaJ+ycuvutriPAVvZgWGGZh38qWLId0MwyCsxdTBZ+ecAKp85SZToUlVF+OvknpnQGy8cYVjSzErbImBxj0lZxF/lfdKQlKw/ANH4Co5D1jP7wLO+EBawbHfP3PzMiGgq5ux41apQbxUbBDcoF2VPn7xtKatrtDL52ZVPYkUfWKQrMhDD6SLzYzB2j8MwaMJpIWE4++WQ36mcj64Td3//sK1Bk71Mey0v8415YeLtrVmYUheO3v/1tdFU//h7Ior1S7KMkfpoJK1V8rdkXX3xxdFUO5IxZN9KLEzj8dAwrwXgfXdjwdWnJXtm+ffu6dPSV6fj70TpLVfmop2Ayyz69zqz8qRpmXcMGjLtGJpKrB4pA9ggLMwD+LCflE+4BYaYMs9lQ5Mjfm8isTSNKmKCV5UEZKPsMZqaKoNyw8tPCAWEDJroqzm+E2Z+J6ak0s3xjFspgdQHKfW2GHrn0qUJGulvd4VNVHqVNQBuGPdKW74hP6g3il7RkteFVV13l7CDs2EdXjb9vhJ0D90t59OCDD8bP0G7aeOON3TUk9R6YXgTCnpSBqvJxWbpbOQbEHXEDyCf6QOqB54kTwsNs/qc+9Sl3v9V1BOywww7RVXF65tk3s4wqi78SkRU2nVn9AK1MB1YjG51dxQLkM1MsCpTlrNwuMr5CRf+UBtF5WjZ4QGOI5WhAQ4claGWFnmetcYSQ77fffu4a/E4zS278zmoSvxLqLGQqy7x0pPMa3dhRcKbBfZb6s0w8eXyKQUXKQIK/XMgUqYFf8BRl7OUl/oGtHkBnN69CowL2tezWyx577OGUOQFLIvMqdI5ZagUcrWODSWiOpvAsA34/55xzYiUzDA748vPXv/41umqTK3+wwAeZqeL4wKryUSvxK8B68RscRY0w4pgGNQN+NK6bAfHPIBEgE8gGFXMZWHZpWsvJHzQ6DMonG4RicMIfWEhy4403VtJpalV5UAa2iFkngOWUeXINl112WXS1LBxAR8fKHvJbXlmNveXrnk6zyjfr2AGd0yzo6NuS90bojnWHUVUepQNLG4YtBXTak1CHMPhMWhi+W42+b/h5hWXKtn2BNo9fj40YMcL9Enbi3DTW++0Zo6p8XA/dqRwD4o76x+KW9ltRPBgMkPvtPeoaaxt2RR3BUnyDI6nzmDlzZnSVTrPKqLJQd9uWEso14igPyjTCb9uOjSrToWhrJUq3DY6tLup72KAiv367hP6S+YM4IO8z2FFkTjzxRPcOMFmVnMAp8r9IIVqB0BJYrhJmOrc0hGVQRx11VO4SIpY9oYjPlvSFhZhbTuYzadKkeLkJy2dZipMGy/rDDBI/m7Y0xewweUybNi1+btCgQalh4B52WW6yLMj8E2baVGVAgDssY+M5wu8vrwsLjng5TlgIRXezWV7in60SFu6suMMf/lJVTNqyNpZqmX1yiRqgqMnscS8tfHwff9hzaWGrErYY+OGfOHFiZrwD8RV2XuNtCcgAS9N8dt9999j/YYEd3W0P30BmfIU6yTirZ/lXFfkoj6K0TVL0vG9fJEtJ+7DCiuWf36xtRn4ck8ZhAyOyqR6WCIcVsPMT32NryAMPPBDZdgS/seSPrUsWzjPOOKPdlpawExDbUW5llS/kGZZt2rOYJMiP2aXFt1FleVBkX4Yf/OAHsRtZcg2UpWFD0D2H/wmHQZxa2UPafPOb30zN42XiMc+ubByDPdcTyzdzD5MmH0A6+YoOMck44X+zK4qHquqOer5ZhqryqL89IE/OcceeCxvp0d3G3/exdGP7jqV1cnly2Olo1+YyNykH06giH0PZPFZlOVYVxNkJJ5wQf4ul6zNmzIhs0yE+TGElhm1Cfru1K+oI2sr9ou0GxHFW/ct9v6zIajc0o4wC+y4mj7AzHz9HHKXJChC3ljdox3/ve9+LbKpNBzC7tDIKOSLvYk8c0MbJii/rK/Ac+Zm0M+jn2HcuueSS6G4xfN/SH8P3k5hdFWXsikC+hFYMDSL2sfkd2F122cVlPAocMhgGYUWAhg8fHhf2ZNSpU6c6IfDxC1zrEPO+uUVBR2FLBuc5vwGfhPtm8qAgZB8NzyHghIGKyr7JNQ1xKyiy3DzrrLNiOwplwkzjPcudcePGRW8uwwoGwla0J215iX/C8Z3vfCd+lrgjDBZ3hGXMmDHOP76baZVLUYeRAt4KHdxDW7fFFd8jnvy9YJiswoeOoBne7ywUpoTf4p2GC/7CL37c4087BcOeJe3Rp5HE78hbZWjxyS+yyDeIA5MfzD777BO50EY9Dd2q8lEWRWmbpOh53x6ZNn8avn1S1pBZ9j6bPXGMG36+I6/4ckuaLViwIHJhGaSpyVFRQ64I9JP4lTqazdFIjLvmLz/9/YED9gwnG95+Iw33SD8/jCaTlmd8WcLep2zDsMrywLensYdfyxjynYFc+4MyyLVftvMs77AP2L6F/wmHD3tvLX7I44TB4hK30soeTJI8u7JxDPZcWr7GT3751gjNKN/8jjxx5pczuInbpBPp5csk933qKd+qqjvq+WYZqsqjtAXoGPru+PGaFsbrr78+ervx933oSJg79uyznr4Dw98vjckajICq8nHZPFZlOUb5bXkRPzYCeo/8AQs6kvxPWpnfMNbWIz4sHYg/dFj4dEUdAaSXlRPUv9RzVp5YWnLf3MNktRuaUUaB/+08+L6fJsQV37Fvky6kD3FraUGck5ZGlekAZkfb3vzh90nmzZsXt/+tPPTzu33PTwPi08BNCwvuZA36ZeGfoEJ6JftLZpflf/6vqo5bHijfEq8IKgwyjhXKlpAUOGQwDMLqCxACjiI+hD0JBS6zX5YxEUreN7co6LDDDTq/3DN3kyNfdh9TBA0D6/hgaFTbN7lGyMlsfoZLgvCb0h4MYabxnnQHO771/PPPR28uwypNDErQilhe4p+KnYLdvksYLO4IC/cx1jHCpFUufocvq6KgIPE7WBZXfM/iyY/PrAae2WOKKroiCD/x6Rf++MWPe/xphTWGhhppn2zcgN+Rx/jxya/JIuHEDYt3vudDuMyNMg3dKvJRFmXS1qfoeWbKLNzEq/nTKhj//bT0Jf9MmTIlThPc8vOd5RXsCC95Li2t/AZTmXAVgZIk0sC+TR7GL+YvP/2xx/+sOPIbIj40AiyMfn7BmExi8Ltf/iUVA9bTMKyqPDA7DPFgfi0yHD3qw6CML9d+2U6e4R3u80tc4v8kpD15zWQf/1tc4paVPX4c4l4Ss8MkqSeO7bm0fO3ne0yjVF2++R15jF/O4CZuE7+kGbOK9hzKE338cJYp36qoO+r9ZhmqyqN0DM3/uOPHqx9G4ha3km2IRt83GCjgOTPkmTQ5OO+889o9l8y3SarIx/XksarKMdww+ypkhrYnblp48QNpZX7D+PUXv3Ruib80uqKOQB4oU6w89duqflr6+ZHvZ1F1GQX2HKYI0oS4sTjnO/Zt0sWvswkTZVGSqtIBbCAQY/5g8MsgzLznx5ef3/24IkzJ/OQPljCIVi+0VyyuMP7ABBT53y+HMSs6XRIDCBGFCuftUjAjTH6iYsjgJCYCxOkDyRlvHzrhNLTJICZ8GK4pZBF83KDiYWTL7GfOnBm50Ibdx5SBBglhSH4XvyPoaAweMGBArpsING4QVivUfHe4jz3fSoOw27eLNBkby0v8893Zs2e7MPhxx3fxO3bHHHNMfL+oks2qKIgvOljEBeHx48rCR3zavazK2uwxRRVdGYhP4hV/EV6/cWyGe8QPaU1DLavSAmQsLYzELWlLx5dw4saOO+7o7KiA/eVufgFbttFSRT5Ko0za+hQ9Tx5gtoH4secwd999t7P3389KX9KMCpRwJfOd5RcqacKclef8BlOZcJWBNCC/4C/84KeD+Y30wW/33ntvaiPZwN+EMZkvCSthxg3syb80aMw+uZSwnoYhVFEemF29Ji0dTK75dl485MUleQ1Z4Fk/f+MG6UF+pQ6x+2gVT2J2mCT1xLE9l5av/XyPqYKqyzfcSsaj7wZ1GGnGdy1fbpbYDuiHs0z5VkXdUe83y1BVHgX8T/iS5TcGtyhTyHu4lUaj7wPx7JfLBxxwQGTTHtLCd5/tZEU0mo/ryWNQRTnm10VVyQz+ouwnvKSV7zcM8UEaWHqlTXYZXVVHkLfzylPaOFdeeWV8v6h+rbqM8t8rA2U/5Vbat4lXqyOs3ZakynKAbdG44+dhtvv44Acrh5PtDPumyY+fn5igYSDNnmUipzP4K9CSZXuR//1yGLOisxJ/wojoEt5//32nLO2tt95yCjRMeQeEnRKnnXXdddd1CkKKwC00h+KWKSQJhdGdn7vBBhvEykB+//vfxycWbL755u1OLPA1Mo/ylPTkkfZd/I7CHdwOBTJW1pTlJm6glAeldWFmju4ui4NNNtkkVxEhClzCAs8pPXnmmWeCddZZJ7LJZ3mI/w8//NApVHn99dfjuOO7a6+9tnMfO+IWhqRoVSa+zJ54RrlKFijt41nS0+IK9yx85n/SISy03bUP9iiv4dzjsCAK9txzz8imMfBXWLgG7777bjvFYIBfPvnJTzrFU3kyZKSFEVlYY401XPyYBl403poSw1122SW+zz3ThpsVD2lUkY+S1JO2UOZ5ix8LOwwcONClv/9+mqwZyCz5DgVKfr6z/EKeI72ysLhACVLYuCmtsKkI8xdKUPGXpQPgN+To05/+dK7fjLR82atXLxc+0pT4QiEXSpvCxoSzJ76IN8NP87z49Gm0PPDLoHrIkpe0sj0tHoogXV5++eU4PnADRbqUPYRhpZVWcvfDxnQ7bdSQV67WE8d55Zvle84N57z+KpsVuF1V+ZaMR0hzA8Vw5Eviee+993b3oLPlm5UbfLfeuqOz3yyiijxq4EcUEPrlN+Bf2iPEbZ6cN/o+EEe4AzyfphiT/Bh2HqP/2pQUlsl/jeTjrijHrC5C4RxxmCwTGsHqCPKj+Q2ID75ldURRvHZVHQFZ5SnlOP6y+CrTbgDkrooyKq+szsJkM/lta7dZHZFFVeWAufPqq6+2a8NxckoS4p/48tsZ9s20/J7Mt8OHDy9V3ifx22h8zy/bi/xv5XAz6rieSJcOHohqoEM6dOhQJ/AXXHCBO95IdE/o6HF6RZWDB2LFgzw/YMCASgcPRPeBRsy3vvUt1/BjQOCggw6KbDpCg+7zn/+8uz7yyCPd8b5dxciRI522ezUrhOh66LT269ev0sEDIVZkVMe1ocGD5QBGzCZMmBD88Ic/dEe/PPbYY24ED/wjakTrmTt3bnTVBgUPI6jMspQdJRciiQ1C3X777alHjYmeDbM8lA+U4xyBy9FsVqb7MHMzevTo4Be/+IX7nzPumZXpCvAL9Q8zR0uWLInuCiG6Ahtg5pi6qVOnRneFEJ1FddwyNHiwnMAyIJYzshSas1zZygC2nFV0DX72uummm4JjjjnGnTc9Z86c6K4Q9UGjcOzYscEHH3zgzpm2LSNi+YIl1axQYnnll770JVdusMLMeOihh9ygwd133+1WnTGIcP3113dqOWej0KiigzJp0qTgBz/4QXDsscdGNkKIVkM78IQTTgjuvPNOV05sr3PshWgI1XHt0eDBcsT06dNd53SrrbYK5s2b50bHNHjQtfjZ69BDD3V7Oi+++OJS++iESGPatGlugPCiiy5qt2dPLF888cQTwXHHHef29TKA8NnPftbpwzDYM8r+TPbQM3Bw3nnndVm5QrmGLO6www7BOeeco1VVQnQhv/3tb92KNFak0skp0j8ghMhHdVx7NHiwHMFSV/bJMohw0kknuc6Fr4BFtB5f6Q37DldZZZVURU5ClAWlo8wssRdejcLlm1//+tfBz372MzcYvHTp0uCVV16JbIKgT58+wZZbbhkccMABwc4779ylA5JsnWOQY+ONN3bKroQQXQdtQbav7rjjjlqZJkQFqI5rjwYPljPYvsCMVZo2VCGEED0L00Sf1G6OJugyp/EIIYQQQlSFBg+EEEIIIYQQQgiRy/+JfoUQQgghhBBCCCFS0eCBEEIIIYQQQgghctHggRBCCCGEEEIIIXLR4IEQQgghhBBCCCFy0eCBEEIIIYQQQgghctHggRBCCCGEEEIIIXLR4IEQQgghhBBCCCFy0eCBEEIIIYQQQgghctHggRBCCCGEEEIIIXLR4IEQQgghhBBCCCFy0eCBEEIIIYQQQgghclmpFhJdt5y///3vwaJFi4Jf/epXwdKlS4O33347sgmCPn36BBtuuGGwxx57BNtvv310t+dxyimnBM8995y7njt3rvv12XfffaOrdPs8Gnm3GZh/+vXrF1x00UXuulncdNNN7veggw5yv63k4IMPDv71r3+5a2Rz0qRJ7roeWu3/559/PpgwYYK7njJlSvC5z33OXRsWptGjRwdHHHFE8POf/zy44oornN1aa60VXHfdde66Xvy4mj59erDOOuu46+5AGXnNS6cq5P03v/lNcPbZZ7tri3uD8vGoo45y1z/4wQ+6VdwJIYQQQogVEAYPuoIZM2bU9t9//9rWW29d6927d23llVdmECM2q622Wm299darDRkypBZ2emphBzx6s2cxePDgOExp+GGul0bebQbmF8LcLJCDY489tta/f//amWeeGd1tHQ888ECtV69ecViR3ddeey2yLaar/D9r1qzYz2+//XZ0tw38b2GaOXOmu/fkk0/Gz5M3O5P//LgKO9i19957L7LpHlj40uS1TDrlvV+We+65J3bn1FNPje628cEHH9TGjRvn4nDs2LHRXSGEEEIIIbqGlm9bYDZt/PjxweTJk4M777wzCDspbpUBM5TM4GLCRnSw8847B2+99ZZblXDNNdcExx13nJs9FSs2P/vZz4IbbrghePbZZ4MPP/wwuts6mIH/6KOPgrBD7f7/y1/+Elx//fXuugxd5X9muIFZ8jXXXNNdGy+88IILEwwZMsT9brbZZsGwYcPcNSsH5syZ467rweIKDjzwwGDVVVd11z2BrpYz+PjHPx6ceeaZweqrrx7ceuutwbXXXhvZCCGEEEII0XpaOnjAwME3vvEN1yinw8IyXJZQT5s2LTjrrLOCY4891pmTTz45+P73v+86H3Rg2M5w//33uwGEP//5z5FrYkXkT3/6U/Dee+9F/7UWZM+2h3zhC19wy/mBwa2ydJX/f/vb37rfAQMGuF+fBx980P0SnvXXX99d03E9/PDD3TXcfPPN0VU5yOsWVwy0jBkzxl33FLpSznw23XTT4Jvf/KbzC2Wlyj8hhBBCCNFVtHTw4Oqrrw5mz57tGsKsNmDQ4Mgjj3SznTSSe/fu7cx6660XbLPNNsGXv/zl4NJLL3WzpcxgMoBw7rnnRq4J0Vruuecet9IA9t577+Dzn/+8u2YgDB0B3ZnFixe73+222879+jz22GPul9UGDBoY++23XzxAwgz8woUL3XUZyKsWV+Rv3BadY9y4ca68JA1MD4UQQgghhBCtpmWDB8yYMRBgs3msLPjiF7/YYQm1Dx2ZgQMHui0OwADCT37yE82+iS4BhX/GiBEjgsMOO8xdI5f1rD5oNeQXU0ZKfkrC1iHYdttt3a/BQB55FNi6cMstt7jrMvz3f/93dBUExxxzTLtBCVEfpMOhhx7q5Oyqq65S+SeEEEIIIbqElp22gEZxWzXAVoS777679B7o999/P9hll13c71ZbbeUGHjbZZJPIdhkslcbdp556qlOnN5j2dLSeH3DAAW6WjxlbOk7MwO6+++7ttKEDe8lvv/324He/+517jiXam2++ebD//vu77zDr+sgjj7hn06J6pZVWiq7S7fPIe5f90eyTBvRIsLKDzt+jjz4avPLKK+4+YRo0aJALaxlN7syu33ffffHpEby/5ZZbBmPHjnXvm38GDx7sdFWk0dk0svA888wzbqYfkIEtttjCXRPGtHQ1P7/00kux1n++g7/LhhtI56FDhzo3+A5pijxuvPHGLgzEBX7Lcq+z/q8CVkzYIAB+9QfsSI/PfOYzLlwzZ850nVSf+fPnuy0aQFjN73nQueU0B1thxOBE8puN5NOiE0x88k5ESJPXetKprLwn8x1htHz38MMPB3vttZe7j64XyrY0iKutt97aXU+cONH5QwghhBBCiJbC4EErCDseTqM45sorr4zulidsZNcWLlxYe/rpp1O1tt91113u9Aa0o6MBP+/0Bk56SMOeRev5UUcd5Z43bfG4t88++0RPtnHBBRc49/iePccv/3MfP6GJ3dxNw+yy7PPIe5cwmF3YeXHhCTtBLh7sPmHq27dvbeTIkc6vWbz77rtO8zwnY4Sd5HbvE0e8j3Z6u5+lfb6RNPLDk2bQWu+Df9BQb3629MHwnTLh9gk7rPH7Z599dnS3Vttvv/3i+8hDFvX6v7MsWbKkNmrUqHZm4MCB8XeSdmHHNbYj3u2+QV4LO8vOnjgsE1/Eg7l52mmnRXfbaEQGjKI85WPPpclkml096WT3suQdGSSsyXzHNffIk+RNu8+3s+DkBUsHylLypBBCCCGEEK2kJSsPOCWBmTvTvP7GG2+4pbhVwawwyt2Y/ecbrGxAZ8Laa6/t7F9//fXgF7/4RTxbyUwi57cnZzZtJpHVDcyIhp0Yt+87bOwHDz30UBB2NoMTTjjBPcMM4dSpU51itbADFOyzzz7xsu958+YFixYtcjOFb775ZvDaa6+5+2lRnbd6oIi8d8NOW3DhhRe6a06uePzxx13ccKoF4WdWmDgh7sJOoVstgYLKZJwwc4qSS9NVwQw7yu+IW/6/4447ghdffNGtyiDcEHamOszENppGzIATpxa3gBvMUMN//ud/uplxQN5QrskefWbUmXVmm4H5+YknnnCz8RbusLPrdBhkQRygK4BwAjPpyAjce++98cwx+/rRH4B2/CT1+L8RfP80gi9P55xzTjzTzSoT5CQP0swUNPpxVVU+HVKwmscnb3VAml096ZTntskguh8IKzJoZQnhvPHGG90pDpQZprDy1JyVB2DpgNyymsFWVQghhBBCCNESwsZ30wkb5LTwnenTp090tzqYYTb3x48fX1u8eHEt7PzX3njjDWe4ZtXC6NGj4+eYSU5idsyw4k/eefXVV50bYefb/QKzu8yO8iyz2ldffbVbEWHf4/tTpkxxs6q4Ze6mYXZZ9nnkvevPoFp4Zs+eXQs7Nc6PhIvVHMSXPRd2oKO3l/GjH/0onjUNO3FuptTiFjeII9zww5k2E9toGjEDznPHH398bM+1vc/MrDFmzJjYP3wLd30/k5aWPjzD6oTXXnstersjd9xxR+weceB/C38Rt9jxDM+mUY//G+GFF16ohR3Mdsa+R9wm7czvYee23X0f4s7iitUCebPeDzzwQPxs2OluF66q8inyZfZF2HNpMplmV086pb1vsKrAZIbw+GUJ4bz33ntd/Pj5Jm/lAcybNy9+lvgTQgghhBCilbRk8ODyyy+PG70DBgyI7lYHjXc6QRga5lk88sgjsT9222236O4yzA6TXG7twxJ+e44l2nQ4krz99tu1cePGtXMzjSL7PPLeTS6/njVrVmoHlfiiQ8wzdPqSy9K32mqr2I7OS5EbmLTOVFVp5IcrrbOF/22wg85Z1rdInxNOOCF2a+LEiZFNRw488MD4uQsvvDC6uww6cmafNgDjU+T/RiF9rKOLefDBB+Pv3Xfffe3sMJ/+9Ked3YknntjufhK2eJg7WQMkcNJJJ8XPJbcnVSUDuGP2RdhzaTKZZ1cmnbLeZ7uCbe9hUIaBxTQWLFjQbhtQkTwgs/bslltuGd0VQgghhBCiNbTktIVXX301umo7QaFqUIR2/fXXO9O3b9/obkf85c///Oc/o6t0OCYyDZaw25n3LOEfN25cquJHFMTZFoeuhmXXLHFOi3viy5TkscSf0yyMhQsXuuPhgKXiu+66a6EbWTQjjdLA/++913aiB8vGs75F+kyYMCH6L8g8SQDlfyhchJVXXjk1nF/72teiq7Y4Y8l6V0H6sCXITNhxdfeR1bCT287unXfecQZQqOjbJTnxxBOjq/YnKfiQN37605+6a77HMn2fVslAVzNnzpxYCeSBBx4YK1tMggJOO+6zDMhsnz593HUZxZVCCCGEEEJUSUsGD/I6ClVA55g99xgfOjPss0bj/uWXX96uk1eEaTZPwn5tO7+eY+/SOloGe73Z69zVsAc+72QLv0Nse8nhgQcecPu1AY37eQM/RYMHzUijNNhjbrCXHrezzFtvvdWuM4ZfktDRtY4gAyjowUhCOluHl4GLGTNmuOvugMUHspqUgQULFrj0ZVBkp512iu6mg94MiysGSNKOC+RbnGoBdJqTeaNVMtDV/PKXv4yugmDUqFHRVUfIT1mDlFlwMgYw0NeVg1RCCCGEEGLFoyWDB5/97GejqyD4xz/+EV1VDx0QFI5xlBsz7QcddFAwfvz44PTTT3fKA5kRLEtWZ9tm4qF///7RVTp0DlCi19WYwros6BDTgYQ//vGP7hf8zkkZN5htLqLKNErDlFPCmWee6dzOMzbzTmeMgaEkKLYzvvrVr0ZX7SGdfeV1KJdMG4joCkzpH6tGktjAAgNl/lGKaZAfbICIARIUTia54YYb4sGmww47zP2m0WwZ6Gr8VQFZg5CGv8qiDP4Anh39KIQQQgghRCtoyeABGu2NP/zhD9FVddBRoyNCB4QTEK655hq3fJoODlrQ6QR/8pOfDI488sjojc5jGvfhE5/4RHSVTbNXXZRhlVVWia6yMQ3ydKINfyChjBvrr79+dNWRVqWRdV4Bd4uMbXEAG0gw/G0bcPXVV7vObpq59dZbo6cCN/tuy/dbDR1z3182mEKH3L+P4WQDWLp0aQe7NBgQsEGm6dOnu1/D395Bh3jAgAHu2qeV+bQr4QQWI2/FD3CiRGfhtAYhhBBCCCFaRUsGD+hU2pJnOmt0yuqFd+h0sKyZDpLPt7/9bdcRoQPCUvQtt9zSHSk3adIk18mhYzdt2jR3fGGjrLHGGtFVOWpOr1o2/mx9Mlx5+KsCrEPXCP6MvZF25GAeeWFtZRoB8Tp37ty6THIWmCMJ/cEU/E5nN81wJKHBAAZy2hWwpcb3lw2m4D//Psa23yTfwaTBKhq2bsCSJUvaySA6I2x7BysU0jrNrZaBrqLMoKLx73//O7oSQgghhBCie9OSwQOW2g4fPjz6L1s5XR68w7JoljXPmjUrutvW4eY+HRc60XTaLr300uCss84Kjj32WNeR4Qx/Oj3MajaKfxZ/mVUUdmZ9Fv5svd8BLcKfEff91Fms42eDPOCvmvj9738fXWWTFR+tTiNA0R77zesx/h59ZskZUDDQGzF69OhcwzMGnet6BoOqYtNNN3WdcYwNhpCmds8M/jWSdpg0yMe2dYNBFX97AQMtwKBNmv6LZslAmu4FI8+umfh52h9gSSNtq0xZVltttehKCCGEEEKI5tOSwQM4/PDDo6sguOmmm+pq2PMs77BqgaX0vh6BefPmxR1fOoBf+cpXnHI4OlF0Bv0Z0Mceeyy66jwojjPKdPafeuqp6CqdHXbYIbpqr6ywCFsiDttss010lc5DDz0UXaXjrwTxdRv4SvSKOsJ0kvwtAD6tTCNTUEnntjMrXAx/Zp7ON3v0zzvvvFzDMzb4wvf9Qa5WQceVzjjG4pVTFuyeGVsuj3+TdpgsOEHBVsvYqSOkveUFTm1IUyrZLBnIO3Xg8ccfj65ai5+nFy9eHF2lU2SfxNcZk3WKgxBCCCGEEM2gZYMHdGBsZpY9wShHK6tUjmdtHzGdQ/8IuDfffDO6CoINN9wwdbm0cdVVV0VXnYeOjs3oMpCBhvgssLMOaBb+/vLbb7891z2DzhqDKQYdtjzuuOOO3Li+4ooroqsgOOCAA6KrINhjjz3iLRF33XVX7oBP3gkDVabRdtttF12lg5Z/ww9XGsTJwQcf7Aa22Ivv44eHWXEGaOis5Rme8WfdGTxIxnuR/xuF1QHIKMaOadxxxx3je0k7BouSdpgssLM4ZvULssgKBNvekXVSQpUysNFGG0VXQfD6669HVx0pk5eyaCSd/Dz9ox/9KLpKZ+bMmdFVOWx1D4M+RUouhRBCCCGEqJKWDR7QWWCJss3Msr/5G9/4Ru6yXjqrdOpMGR0d2cmTJ7fr3PhLdx999NHMTjKzwnfffXf0X2McffTR7pcO0znnnJMaBu5h5yvwSwMt+DZbboMq1157bWo4uIfdcccd124wZZ999nHXWdDJQ0FdGrhn8ZIcmCGemSWGvAEfOmm2bD2NKtPo05/+dHSVzpgxY+KZcdzCzTTwA/J32223uc6vv72EtGNfvpF3ckASX6kgcZbUH1Dk/6ogDDbTzwx/EltJ0plOssWHbV2wFQjID4OEaVQpA76fOUozSyb9AbZ6aSSd/DzNaqIsGeQ+21vKQpra6p6i00+EEEIIIYSonFoL+eCDD2qzZs2q9enTB816tbBDUdtll11qEydOrIWdkFrYkHbmrrvuql1wwQW14cOH18KOoHs27JDVwg5wLWw8R661wfPYmXtHHXWUe9/cmjFjRm3s2LG19dZbzz1n7vGbhPtm8njjjTdqo0ePds/16tXLheGyyy6Lv8n1Hnvs4ezKuIl/LQyYTTbZpLbXXnvVjj322NqECROcIQzcw87cJR55N41TTz01dg9D+HHD4oZf3MU97Pn+NddcE729jKeffroWdoTcM8Tv/vvvH6fVAw884NJp6623bvetsAMZvd0Gz1aVRvfcc0/8nR133NH5ATfeffddZ4+MXX755fEzFm5fvvjemDFjnF94hm8uWLDAvQ9nnHFG/P6wYcOcm2Xh2d122y1+f+jQoZFNG0X+B/w3atQoZ0ijzkA+s++8/fbb0d02XnvttViGiJd6IQ9uv/327v3NNtssTtszzzwzeqIjhLEqGXjyyScz3TK5RiZ9d5IyCdzPsiuTTnnv4w/zI2EiLyf9yH1zA0OezWP69Onxs5dcckl0VwghhBBCiNbQ0sEDoOMxd+5c1ymzhnDv3r1r/fv3rw0ZMsQZGv5+w5rO69VXX92hEwR01ujs+Z0J3je36BxjhxsMPnDP3PU7AmD3MUXQqbYBBEzfvn3jb3JN54zOvQ2U5LlJGGbPnh130s0QFjo/GAufGTpvxGNWx9YfPOBZc8Pihl/rWPFL3KTFL9DZsc4i4bK0GjhwYJxOfnomO1NVphEDNxanvIMfeP6OO+6Inqi5cEyZMiUOH8/58mXfww63kC0/HjfeeOP4+1deeWV0tzw33nhj/D7foeNplPG/n3ZpHdMymBvEaZK77747dh//dIYLL7zQvW+DEIRl6dKlkW1HqpQB3OKZNLdMrrHjmW222cY9U+/gQZl0ynvf/GhupPmR+36+KRo8YMCL5/DPq6++Gt0VQgghhBCiNbR88ABoWC9evNjNpNEBp8NgHQEzNLqZaZ80aVJt4cKFHVYc+NCQpgNIQ9wa5Riu6fTSKMcNOpXM+Jn9zJkzIxfasPuYMjCAQBiS38XvzKLOnz+/NmDAgFJuEif4kU4v4U4OJGC4hx3PPPzww+6dLPwO6DHHHFO75ZZbXFz7/sS98ePH1+69997MgQPgO3yPtCA+/bSy+CU97V5aZ6qqNAJm1XHH90ey44U7hJl0SMqXfZOwk0a+bDFQYh1inutM55pv++nHzLhPkf/9tOvs4AErX3j/kEMOie4sY/Lkyc4OOe0spKfv/5EjR0Y22VQpAzyDW+QH66BjrNxgMI5niD/up8WjvZMVx0XpVPQ+30e+kDNfHnAPd8nHDE7Z/aQM+zCAwiArz7GyRQghhBBCiFazEn/CBmmX8P777zulg5z5zr5lXz/AaqutFnzqU58K1l133VwFbgZusbcft0x5W9hID1ZfffVggw02iDXAc+SgHY+2+eabO23vhr8/3fb6F5H2XfyO1nvcXrRoUTst80W88847wUsvvRSEnYX4PSPsZAVrrLGGC0+RsjTOyudYSwg7JcF3vvMdt2c67MDF/sQ9/OkfyZgHyh/Rbo+/LK1IG4tfiz/cDTtH7tqnijQCcyfs2Mf+IAzJUyc+/PBDJ1/ozvDly76JbCXDzvNPPPGEu+Y5lEZ2Bj/diaMhQ4a4ayjy/zPPPOPiGX0fxKWvf6Es9v20eDH3kdPdd989uls/6BXIi/80qpIBwC3C8de//jXWBWDlBu+gPNLiIU0my8prVjoVvW8gUy+//HIsD7169Qo+85nPuBMvkFFLX/5H8WYas2bNio/JvPPOO4ORI0e6ayGEEEIIIVpFlw4eiOaRHDzIUtomui+f/OQnneK9zgweiOULjojlyFUGKVAomXdahRBCCCGEEM2gZactCCHKw2kIzFQPzji9QKw4sMJjyZIlboXGN7/5TQ0cCCGEEEKILkGDB0J0M9hmcf7557vO4hFHHBHdFSsqF1xwgdviwban3XbbLborhBBCCCFEa9HggRDdDAYPHn30Uddp1Hn+KzasOnjkkUeCPn36BOecc45WHQghhBBCiC5DgwdCdDM23HDD4KqrrgrGjh3rlP6JFROUfDJgAGeddVamMkUhhBBCCCFagRQmLqeYRn3I0+IuhOiecBLDL37xC3e90047FZ6wIoQQQgghRDPR4IEQQgghhBBCCCFy0bYFIYQQQgghhBBC5KLBAyGEEEIIIYQQQuSiwQMhhBBCCCGEEELkosEDIYQQQgghhBBC5KLBAyGEEEIIIYQQQuSiwQMhhBBCCCGEEELkosEDIYQQQgghhBBC5KLBAyGEEEIIIYQQQuSiwQMhhBBCCCGEEELkosEDIYQQQgghhBBC5KLBAyGEEEIIIYQQQuSiwQMhhBBCCCGEEELkosEDIYQQQgghhBBC5KLBAyGEEEIIIYQQQuSiwQMhhBBCCCGEEELkosEDIYQQQgghhBBC5KLBAyGEEEIIIYQQQuSiwQMhhBBCCCGEEELkosEDIYQQQgghhBBC5KLBAyGEEEIIIYQQQuSiwQMhhBBCCCGEEELkosEDIYQQQgghhBBC5KLBAyGEEEIIIYQQQuSiwQMhhBBCCCGEEELkosEDIYQQQgghhBBC5KLBAyGEEEIIIYQQQuSiwQMhhBBCCCGEEELkosEDIYQQQgghhBBC5KLBAyGEEEIIIYQQQuSiwQMhhBBCCCGEEELkosEDIYQQQgghhBBC5KLBAyGEEEIIIYQQQuSiwQMhhBBCCCGEEELkosEDIYQQQgghhBBC5KLBAyGEEEIIIYQQQuSiwQMhhBBCCCGEEELkosEDIYQQQgghhBBC5KLBAyGEEEIIIYQQQuSyUi0kum4K3//+94NFixa562HDhgWnnXaau66H559/PpgwYYK7XmuttYLrrrvOXXcHrr322uDWW29115MmTQq23357d+3z97//Pbj++uuDoUOHptpXzc9//vPgiiuuCPr16xdcdNFF8f/QSPwdfPDBwb/+9S93PX369GCdddZx113Nb37zm+Dss89216NHjw6OOOIId53kpptucr8HHXSQ+zXKvl9EVe6k8ec//zn4+te/Hv3X+fjHf/gTjj322GDvvfd2192BU045JXjuuefc9dy5c91vEvw+b9681HLEj3+YMmVK8LnPfS76Lx//Xcs3onFU9rSRVfZkQX5fuHBh8MgjjwQvvfRSHHZAPjfaaKPggAMO6Dbx0Czy8nuzIc1uuOGG6L/6yhOjmf4//PDDg7fffttdd7Ys98PY2fZZsyjTtiKfUFZnldf77rtvdJVdp2TRyLvNoEz9WBX1lldV4rdRVl555WDOnDnuuh5a7X+/j5JWTlj9lVZHLE8y2igWnkbbYHnuWD469dRTg1122SW6K+qGwYNmcskllzA44czGG28c3a2PyZMnx26MGTMmuts9CAUw9ts999wT3V3GAw88UNt///1rffv2TbWvmjBT1AYNGuT8Exa67t6TTz4Z+zEsjN0z9UI4evXq5dwIM2Ttvffei2y6HuLVwkd6JCG8YeOq1r9//9qZZ54Z3V1G0ftlqcqdNIjvPn36xO6HDavIpjzvvvturXfv3u595AC56E4MHjw4Dl8S/D5x4sTakCFDarvttlt0tz1+/GPqKSv8d/GHqAaVPfllTxLk/IILLqgNHz7cvbPWWmvFYTfDPeoTnuFZ3lneKJPfm82IESPaxfsZZ5wR2RTTCv/vt99+sd/Gjh0b3a0PP4xXXnlldLd7UNS2mjFjhssD5Ics7H1MvTTybjPIqx+rot7yqmrIN9ZGwVD23XXXXZFtMV3l/1mzZsV+fvvtt6O7bbz22mtxGT5z5szo7jLsPUy9NPJud8TC0mgbLM+da665xtntvPPOLm1E52j6tgVG3JhxAmZQmE2pF3/0/2tf+1p01TNg1u3OO+8M/vjHP0Z3mkvYmAyWLFniRjj32Wcfd2+zzTZzswrA6GdnRnKZMfzoo4/c9YEHHhisuuqq7ron8LOf/czJ0LPPPht8+OGH0d2eBfF96KGHRv8FwY9//OPoqjw//elPg7/85S/uOmzUOrnoKfzud79zeelXv/pV8M9//jO6mw/hZfZKdB0qe8qXPcxehZ3AYOrUqcH8+fODpUuXBltuuaVbccTMK2b8+PHuHvUJz/DsN77xDbe6bXmiM/m9SkgLvg3MfgJyWDaeW+F/ZMFghU+9MuCHkTbafvvt5657CpMnT3Z5wFZfiMbp6raS30Yh31Hu//CHP3T/l6Gr/G8rJZjpXnPNNd218cILL8T1F+0u0bV8+ctfdm0SVvWde+650V1RL00fPFhvvfWCL37xi+6aDHTLLbe467Iw2EDmAzLm4MGD3XVP4cUXX4wLjmZDA4Jlfr169QpOP/30uJH98Y9/3C1xNG6++eboqhw0SmxJFAX6mDFj3HVP4U9/+lPw3nvvRf/1XA477LC4IUujjyWb9TBjxozoKgi++tWvOrnoKbzzzjtxo6IspDkNTBrJomtQ2VOu7EFGjzvuODfQzDss0aazeumll7ql5CxLx3DNPbZu9OnTxz07e/ZsN4CwPNGZ/F4llJWWbiZzxDWdmzK0wv8777yzaxMB37r//vvddVkYyLMw0kbr3bu3u+4pWLtQVEdXt5Uuv/xy90vZZh1t+gBl6/Cu8v9vf/tb9ztgwAD36/Pggw+6Xwbo1l9/fXctug4Gd2gX0k/6yU9+0qkJbdEihYn+agH2ItUzQs5gQ0+ddWolxOk555zjRuFHjRrVYX8gswq2AoRR2XoyDI0Sawj1tBnr5Qni3SpUKkj0aJSFgYaePMvUWWhg+noQROtR2VMMMkpYqeuYFZk2bZqbIRk4cGDQt29f17HDcM09ViHxDAMqlAUMIGiVTXUQn0An5oQTTnDXYJ2b7gBtIdpExn//939HV+XwB/J62opOsfzBAAGrZoFJQmujUL75Ex/dkcWLF7vf7bbbzv36PPbYY+6XuqsnTdgszwwdOjT4whe+4PpLWn3QOVoyeEBBYCPkjAyWHSGnQ2yKT2gk+QrjRHtuvPHGuOBFIUiykKLhaStAWD5czwoQv1FyzDHHqADsIoh3VgwYpHlZGGiwEXkanD1tlqle9tprr3iVhrYvdC0qe/JhxRgyysABgyysLGCgJC+sdByJ06OPPtr9T95mMEE0DunBFkug7bLVVlvFg/HUsbZEuTvAqggr5xiUK7sajWcZyAPC1tNWdIrlDwYIqB9g9913d1ueTbYZzKtn0rGVkOds6wwDu0mefPJJ97vtttu6X9H1ULeeeOKJ7hqF/pT5oj6aftqC8a1vfSs4//zz3TX7Osto3Wa5qo0+jhw50i3p9CHT3n333cFTTz1Vt0ZqGgBltGRDntZflpFeeOGF7vqee+4J9txzT3dtGj0RTCtYaBBapy2pGdW0Mj/99NPx8xScG2ywgavYaSiuvvrq7n4agwYNciOc+I29PGkNT/YHMtoGG2+8callf8QxmmNpnDILQ0Ho7+miQLc0YI+u+R14fsMNNwz22GOPDishjLLaVfPS695773WdRTj11FPdCR9g6fbMM8/EYd1kk02CLbbYwl1bWma9n4Sw0vF59NFHg1deecXdI4zEPXL28MMPl3KnEZiFZQSbeEY+nnjiiVIawAmnLa2jAZxMDwpP0pY0tLABnRnSENnN0uZdjxbovPTmG8guWLFk6U64/ZUTto/elwU/HU8++eTgE5/4RPDd737X/U+6E8asuPLfJb/Zt5JULe+W75m5sPILO/KpH988d/vtt7u91DxH2m+++ebB/vvvn/ktH8J+3333tSsn8S/751uhtV9lT3rZA7vttlvwy1/+0l2z/eDiiy9212VA9wHuENYddtjBafr26wkLI/4mndmHb7JGPqKRnlb3VSEvnSlT6snvPsgKA6T+tyyP5JVdaaCh3Wbl+SW8rOojzYDyzur8JJ31f2dhXzdtjgULFrj/kTt/m1AWlI/oywDCQph8CMdDDz0U/OEPf4jLdijTJsnLL0k607Yymfa3kLDaEpJ5eaWVVoqultUpZcl7N+nvTTfdtEPbgHS3tkGZ/EK85ZXxafVjks6WifWUVz5V1Sv4m1l7tvkSbvzAlmfKJ2SbJebEr6V9ks76vwqQTRscJ76TddRnPvMZFzczZ85sp7fKaJaMGshVI30LIBzEP3LllwfktyI3rH1oeZO0YgIZv+AP6i225PG+hSevDQYmd+YX8hoyR98SmSvjzvvvvx/079/f5dddd901LkNFSUKBawlhQVYLBQXpdtpUy2i5DCt89zwmqW33sssuc5p2wwIiVyP1yJEjnbbuJLhnz6LVNw/s7dmkP7LsQqGN76cZHzRmhxVDLSws4zjCECbCgeZYTmwIM0r0RnsIn70XVtrR3Y6EjfBaWIDGbpfRYovfzD9hZR7dbYP38Rf+I019v2NWW201FybChmbkNOxZ4iuPvPTKsvPTJs1YeuW5bRD3hBV5I1z2PNfcO+qoo2ph4VroThUcffTR8XfKaAD35SNsxNY++OCDyKYtXGjq3nrrrV1a+WHD8B5pi/2ECROit9rjy3oR9lxaeqe546dNmvHjOZmOr776aizvmLzTF/x3s2SxannHPcv3fvlFnie+yXtAWcdzfNOe45f/uZ+Xj/30TZaT+NfKyDJlQSOo7GlveA9IH9/v1JP1cu+999Yefvjh2vPPP98ub4O5i38oo3xZ47v77LNP9GQbVchLI2WKH59pJhn/YG2B5Lcsj9h3ypxKQbuEcPM+v2ED191/0js1hO9kudUZ/zfKjTfeGLs/dOjQ6G42+J0w8DxhpJw0sCOuyDektcWFGeKUe+Q7ytO0dlxefkni5xPLE0aWnd1LM8m87NvVS967vt+o98lbybYBcl62fLU2YF4Zn1Y/+jRSJvrhSTPJtKm6XrnjjjtiN/zTSfzT2ugPZFGv/zvLkiVLaqNGjWpnBg4cGH8nabfXXnvFdsS73fcxe0y9FL3baN8CTK6sr+V/0y8LstwwueWXshp3zC/4g1P4/vrXv7pnzd2sOpnyidM0TO7sedwjjMgc/ihyxxg/fnz8PmkrylO/tDYAhYIl6rUFR81RKVlB3KdPn3bHc1HwUThZopNBKTwmTZrkDIWaCRbCyZEcycq+2RUcx4HgF/xu9vjL/GhwnKJfkfvPINj9+vVzdoRj3333TW20nHTSSfE3aOTkweCCPcu3ithuu+1S3SajkYGtwKdTin/T/I6hwEjLnGZflMnz0ivL7r777nN+wW9mz7X58YUXXnDPFckChdEee+wRh5Vw8ZyFk3RDVpGzPHeqgsEA+06Z4099+aAyNpAlwmUFOeHy5Y8w+HFHONM6YlY5YIqw59LSO80d0gi/4C+zI0+ZH0ljIy0d582bF4ePNMrqSPrvpvmtanlfd911nXtWfpk7fmODcoHj3qwRb2lD2PxBEY5mTSsXTG799DU/44Z9izDhl7INvc6isqdj2TN9+vTYHj9Xjbm91VZbOfnnG/gTP5D+P/jBD6Inq5GXRsuUevI70DhOtgXsWdyw+pfv0MFLyyc+NG7tu/vtt190t+YGZXx//+hHP4ps2lOv/6uAAQ7Cx7eIg6xGvEFHzfzmhxFOPPHE2C1+R48eHfsdQ/xa2vJLQz5JUX3qg709y3s+WXbmF7PD2D3aXT7+M/WS967vN+p98hbxYbKOvT9YSn5JK4MAGbY2IG74cW4yx/vUGfbNJI2WiWXLK2hGvXLggQfG3/XbKAxsmTwSx1lxWI//G8GX7UaMT9b9MuS9W0XfgrRLyhVpbG6YjCMLyERa2WPtOuTX2jImL/hp3Lhx8aA3z2HS6mT8RxmOHPCM7w5+Ijz4E3/kuePjt6VPOeWU6K4oQ/3S2gD+CDnnC+eRNeuEANEQ4j4CO3Xq1Nrjjz/uCpk33njDGWZgmI3xMwcVpk+zKzgqdPwyYMCA2J7MbH40mCnAjozACDZ+t2eYhVq4cGG7DJoMB9CBNDeSM09JkitA8hpTeTPWfuOIDLx48WLndtLvVIT2XFrmNLtmNOAZcMIvxx9/fGzPtfnRwlMkCxRYVngSHsJl8kY4kTXix57JcqcqkrO4pFMWpK9fgfizTDSAzc/4n3D58sezpCuFs4Vrxx13jN5ehlUOmCLsubT0TnOHNMIv5B2zI0+ZH/1BxbR05H1WZ9h9yo6i2bI0v1Ut78S7X36ZO1z7bpBH6Xz4ZQPpwkyzLwNp5QKzAZa++Bn/mZ9xg29NmTIlzuM0EsqsCOssfFtlT5sfLTycRW72hxxyiLtXJeY2coAc+WWXyZ1Rhbw0WqbUk9+RESvbCNvs2bPb5SW+O3/+fOcPnqHRed5550Vvp4Nf7Ls333xzdLcNfxY0rRyEevxfJf5qtMmTJ0d308la0UnHjDqC+1bmPP3007HfMcQv8WwywPNJGcjLL0mwt2d9v0CWnfnF7DB2z1aKGP4z9ZL3ru83y1vES7KMJh/Zc2kz58S5Xz9fffXV7eKcvGJ5zvIVJkmjZWLZ8gqqrlewM7njHdzwYYDL/JTVwavH/41gg4O+se8Rt0k75AI7+iL+fR97H1Mvee822rcgXZiYMHvSFLkifcwNX8aRCQYhkli7Dnvcue6662J5wU8Yg+cwaXUydYsNHOBvwuTLHeHBL34+KarbkRuT0y233DK6K8pQv7Q2AAW7ZSaEIK9AsVknEtafdaJg3WKLLVyGYIlKsrLwOf/882MhSi7nb3YFZ1jGybI3wd1mm20yC7hp06a55yiALrzwwuhuG4z0WWZheVIZiDfzU1qnw/BnrK+88srobhuEi7TEkIGzeOSRR2I3/OVohtkVZfK89CpKSz+N0uzz3id+rWIj/pG/NBYsWBA/l/WdKkEO7FukUxakrz1Hpe9z3HHHxQNs+D8LCmfLt8hhEl/Gi7Dn0tI7zx0/jbJkJSsdqVj8jnbRbFmW36qUd8xBBx2UWn7dfvvt7Z6j0k4rG3wZSJZvzBhYRUvnKcvPfP+EE06I3WGlQzNR2dMef8bt5JNPju5Wh7mNSW798KlKXqoqU8rkdyYg7JlZs2Zl1p80eK1spqOW1e6gI2f1MX5L5k3KEbPnN2/Qtoz/qwS/2/doO2VB2C2dSSd/MINGPfcI27nnnpsZn9z38/GiRYsimzaK8oSPnz94zyfPDswOk0WZZ7LIe9f3GyZL/shHfgctOQtPXWRuMGGWNriEHDI7a89hklRVJvrhSku7ZtQr/mof5CoJg3hmT/7NG3Qu8n+jkMaUXWYefPDB+HusfvDtMJ/+9KedHSt6/Ps+9j6mXvLetbKqs30L0sz6FqRlsjw0kAEboE2TcWTT/IjMpcm4Yc+llZn+pDErSovyW5Y7SehPmrt5fVLRnpactmCgSMQUhoQClHnUHAo+TBNw2CFudzxXWHgEP/rRj5z2VRQw+spJkoSZJroKgn/84x/RVffClMy8/PLLThlJGmjHRxnM1Vdf7ZTn+BBPdpRlWW2upmUUso53QkGKKSQKG14djvZD8Qnph+nbt290tyNhRo6uguCf//xndNVzmDNnTqxkhnQwBTxJOPrl85//fPRf8yEfkS6Qd/zpDTfcEF11PI6L00uQKZQc4v8sevfu7ZT+gMlrT4IyA0V2YeXg8gpn+9opLmVphrxzckZa+YXyHgM/H3bYYakKUFGmZSTLN8JIGQthhy7Tz3x/woQJ0X9tR+M2E5U97UHRn9HskyQ4+jGLquSlVWXK888/75QRA+mMIrWs+EMDuik047QnO3c9SdgBjP2Ce8m8STliSj95rozS51bBiRBhA95d5x2HSnpZOlOf+UdfU+6QdrQ1jjrqqMz45L6veBbFYysyxHuW/JGPrM2LzJDPDMo5U8xJOTdu3LjUo8iRQ/+40DRaVSY2o17x8xFxkIQ816dPH3dN/vUVZbYa0piyywxKCIH0Czuq7ezeeecdZ4Dyx7drBVaWdbZv8eMf/9i1l2iDkJbJ8tBABkxJK99MKrb3IS07c9w+5ZnfJ6SsKspvZbF+In5/oYQiZ9FGSwcPgIawkXXUnF+JJ4/nQoAprPfYY492gwNAQ4yBBzoGdBYoULs7VuHTQR0/frwznCVNOAwKG7RF8yxafX3Qtm+sscYa0VU+O++8c1wYkyn9BqyBNlQ7rooCJlng4Rc04WJ8qBDxO9pQCUdPPz/atKDDqEijcxrIaF7jvGpoyNpgRdbxp6Trfffd565pNFC5+ZB/SEfClSyISUNkA824yCRat3syVDZosgfyGqcwpMl9Fs2Qd3+QwMevpDmZIKuxkVZ5Gr48rL322s6PWeatt96KywMqz6yBqCpQ2dMei4tWsPXWW0dXHalKXlpVpqAZ29oIaJB/7rnnOvjTN/3793fPgmms9yEMtDuMQw45JLpqzzivc8MAST1lSDMhrtFuD8RLVmfNOmp0CJJHX9PwJu1oa1C/+DBYQzySdmeffXaXduC6G3vttVduh8jvzPiyx6kKnMoBDHDldSoZHOrXr+248zRaVSZWXa9QHjwZHWVIB9wG53yoDxmcMQhHd8Hig/RLygBllHW+d9ppp+hu60AmoDN9C/K71cGcXkBaJtPXN5zcYCxevDi66ghy3BkeeOCBeJIUGclr+9Q7eOCfCPL4449HV6KIlg8esIrAhJqRJITUhwKGkTCgMLEZgzQoEKnIyBQULszkcT1x4kR3DJHNTHRnJk+eHBewHCnCTDHHE1mYCB/hTCt44W9/+1t0FbijbspAIWcZjFHke+65x1374A/LrP6ATxIKDgZqTjnlFOdfjrnC76effroLBzP3PRl/JDKv8Q3+qH4rIJ6NtMYi92zVBGmT1cChAUylQhpytjLP4jadbeQTWTB3eipUNscff3ycRjRYzj33XHddD1XKe9ZIvk/REUpZvPbaa9FVEJx55pnOj3nGZkjoeNCobRYqe9rjN1yavTour4NTtbw0u0xZunRpdNXWIUv6L2n8iQo7staHTgCDsEAnbcCAAe46CQ1X2iVAxy9vRrXVEM/mt7TOPfnFOmrM3mXNGtPWYAKGtGNGkbRjJQLxSNpx3Kdm6JZR1CFiIIYOJHC0qmEzqeAPbqVB/eWvwM2i2WVi1eUE+ccGAWnrZ9WJ/mDekiVLXDi7A9bHSJsIsIEF2o1l6vqqaaRvwfGFVge/+eabHdI1aXDL4LjMLFZZZZXoqj78fmKZ/GblYBn8gYhXX301uhKFRNsXWgp7WPk0JnnUHPtgbZ8NSoDSYB86CmJQxNK7d+94D5aZUHDcHhxfOUxy/1Or9uX5+33S7Nm3M3fuXOdX/G3PmiF8hBMNtuwNS1L0/SzQIxFWaO69oYnjndj3Y34JO1upe5TYd2ZHOoWZtYPfcZt3w4Ilvpe2/yjPzicvvfLswI+jNPu89y2OMEUQT1nuNAO+x141voecJPdrmfIvwpC1N9GOOQsbki4NfWUzGNwnr4WVUHwviS/jRdhzaemd546fRlmyUiQH4J++QHjDxpS7X+R+1fKOySPPDSMvvHa/MwZ3m4nKnmWgBMrs0RJdNeY2Jg//uXpNUl6qKFP8eE1LHz9e6zVp7vlKBPGzHamWZkx2MWFDNnKhPUX+bxboteGbxHly73HYoYz9hPLqNHjHjvsjHvywYkgz2iK0r+xeMv2L8oSPn45Jd/LswOwwWZR5Jou8d4v8lsT2VftuhR2u+F5RPIGvDDBJVWWiH640P5ldZ0wynvAzfjV7ToBIy28YyhPfrTS9RVDk/0ZBt4jvLyvbaKP79zG0ybDjN2nnY/7F1Eveu430Lfw83Bnjg5zZ/aK8Ys8lZRNdCWXdgG222SbVnTSaLTPLKy1feQDsYQ2F2V2ju8DHn3UKCwj368MoGXutGEFlFJ1nWQrL6NekSZPc0kPcvPTSS+NlfN0ZRr0YcT3vvPOcv6dMmRKEmT1eosbsBuEMM4wbNaxqyRaj2Mw+ACO5/sieP2PNLGHajNW3v/3t4JprrnEjmixp2nLLLYOwQejSYPr06W71yLRp04LTTjsteqNn8olPfCK6Kubf//53dNUaSBeWdQNygowY/iwTs2Vps0wsQUWm5s+f72ZEWP7LiDRpiByyLJe9cGeddVa8P7mn09ntCz1V3ilnScd6TNjIjN5uDip7luHPWLHcM2uFWR42w09+bnQZfaPy0hVlCnV/0k95JrmdEflj+bSB/DFzn2VsphSYPWb2rrtgy9JpFyX319uKTmYj01Z0UmcwQ82eZcJF3ttnn32CsEHt0o+4Y089M9tlVzl2NdbOhHpmq/0yKex4R1edx5+xN8puMzXC9np01ZFWl4lV1CvkJVvtA6xmSeY1M5QnPuiK6IotQ7SzfH9ZX4W2ln8fY1tSku9gfJolo1X1LVgpnpaeeaZq6l2BmZdXREW4IYQuwB8hN63F/qwTI9tp2jT9o6CYwQgbm+5oGGZW0WLqv4Mdz2GSI0qMXpnd4YcfHt1NB3t7Njnq5Y9aJe2gnlE3CBsuTqN/2Jhxo4a4TzjNDWZzGLE1/O+jrbce/BUgk73jnWzGmrRAw3QSRl8tnRjRDhuDTqN1WJi5NPBnC/GrfSNtFNDsOG4yDzRB27N5aZm0Az+O0uzz3rcRTEzaGbY+vibjtO80g7Dwd2nAN/3jT/1ZpjS5I12YNfP9y7E7dkwUcujDCLU9m8SX8eTqBx/s7Lk0WfDdSeKnUdq7UCQHRtrpC3nuN0PeMXnkuWHkhdfu49/uiMqeNqiv/PI97wSKLNCuT5wwc5c8XtDcxeRhzzQiL1WWKUX53Y9XZnAbAfkzt5hZZ6auyPirJg488MDIpWUU+b9ZJFejkSbgr+jMOnWD1SDmZ2YjOeaStCMfkn4+nKphzxJWHz/szWxbmR0mC7/+Jh+XhbaXvceqgSRFfktizyI3xm233RbfT5OhJP759T5Vlol+uLhOYnZV1Cv+aSnUx2n5LGn4rr1TtBI3zf+N8oJ3VKO1IUhTu2cGv5o/knYYn2bJaJJ6+hZ+Hk47laMekDNzqyiv2HNJ2fRX3Vx++eXR3WxsNXqZsteXmWTaiGy6ZOUB+CPkzDZBKFjxrBN77fy9KEZYCcajfexhHjVqlFPSxMxqWFm2e+fXv/51dJWPvw8tjWbtAWaU0fYV2uwFe6PQ6M9oH2E7+eST3UwNswWAX33/+EpO2JtUD/4KENP6y2imzVgzarleQnESzJs3L04n/PiVr3zFKYzBL6SBP1v42GOPRVf5+CPQaWRpi202O+ywQ3SVrwgGiuybgT+Ly6yDjcbbLFNYObiVOUmQIdtzyTPIGe4ge6Shv0ePWauyys3y9sJ2F2U0yDSzZ2FDJJ6hu/322yPbjjRD3psNaQrMkvqzqt0FlT1tUF/Z6iG4+OKLo6tyUG+Qj4kT9muW2RedRhXy0qwyJQ1/5hvFZI3AakcDJYLM1BUZX9kgSmm7YhY0DeTfX41m+65pY1HWUeZl6RHxZ0QpH1G+R9qRD0k/nzS9EWl0VdvK8OvvNEWZWZiiYaB9mcdDDz0UXaXj5yd/v7ZfL1u5l0dWOdTK+qmqeoWynvaKgbyl5bOk8RUqmvLPVrL++uu7FdEYi9ewgxrfM7PJJps4O9rtSTuMTzNktNG+hb9KhHZbZ1bEVYmvcLJodQay9V50IkgZfF1D/glWIp8uGzwgw5mAWqXF0SBAozJ5PJfx17/+Nbpq6zilDTAAwm6DEmn4nW7fzSQ0CvIUgBTB8rEsqNxZasYWjKzjTai4yez+Ek9TQgN+Y7HexhgVizU0aPSR6fCLLcvM0szrD1KwLNWvnJJcddVV0VU6VnDxzbwCigqyszSyxJIltwZHhOYxc+bM6Kp1IP+cSAIUmAzAUan72urT0gcZskE48ltaR81A2VheYbzRRhtFV0Hw+uuvR1cdaWR5r1+ZVUFy+4J1YNOoUt5bhd8hRcFZHuQ7lK3R0KDB0QpU9iyDjqj5hcYjDekyUDedc845cZzRIOzs4EEV8lJlmVKU3zltyQafmCQoalCynYKyHP/65RBlpQ144h6KAWlgFxmes+9TfrCc36fq8qoekCcGCYA2EOllYWYwJ0tGrAMKeR1m4jpvILhVbSvryObh198MEJepgyiL/KN807Z4+DChlVd++PnJ30pLGWhyQsctz2/Y2TL4JFWWiUXlVVX1CmW95X/at9THafksafyjfhlwSQ5gNNLWKwPtLdIN83R0TOOOO+4Y30vaMViUtMP4NENGG+1b4EfsgHIh62Q8gzKBcLCFrKqt1T6U91am3XXXXbmDtTNmzIiuysFJPQaDbqIcXTZ4QAFnmYaODhnBRiLJCMkMZvjaOrMadRRadAzyZkEZQbTKn053WobFHfYA1jOKleRTn/pUdNURqzho/OUVGhQUtmeODOQ3TLbddts4U5UZvU5isxD4gYLGOlFUzAzwpLHaaqtFV0Hw6KOPZlacNILvvvvu6L90/JF4TshIA3dsRqszfPrTn46u6odKzRopeQ177rN/uysgv5gsMwDnzzKNGTPG3U/ipyH5DxlLA5ks6sz4FTaN6DR5wB2/squXrPKgs9AI8E9fyGqYQZXy3ipId5MJ/JSVhlZW3nbbbS7/+xVps1HZ0war5tABQH4lLvAL2quzwgY01jj73cocBh8YSMgaTC+iCnmpskwpyu/YW0eG+vn//t//m/s9NI8zSUGD2sIJzF7agMfnP//53AEPH57zG+y461N1eVUPyJOtRiPshNvKN06kypIRa0cA76VBHBPXeW2iVrWt/HTMwq+/WWHENxlISstb3MMOnVr+yRvofciD8iGr/MA9K4dwKzkpdvTRR7tf8j35N02GuYedyWmSKsvEovKqqnrFX+3DgErZcovVGpaexFly9UEjbb16IE1ssC2tw2mDmWUGM5oho1X0LfiGQToXlQmUM6RrI3k6C8pTBsfB4igtfvBjvStSbEUPck3ZJUoSbV/oEtBTEAqs22sSCm287+S+++6LnujItGnT4ufCCrw2ceJEpzOBfV/8sg8KbcFhgdpuX2KYuSIXlmF6FzDsv+Rd3MFkuZPcs+Pvl0nbz+Pbs6fQ3DfCRmNsjx/QW2DhMX+w1832K44bNy56cxmmiZS4zNtznkaY0eO432yzzeL0OPPMM6MnOoK/7Dni56ijjnJams3PM2bMcGElfXguzJTuWX6T+Hufk+kZVjqxO34aJPeyEe9ZduDbs6fa3E/b35X2PmGz8OKXY489Ng4vv2g55r65keUO8RIWgM7wTpVwMgnfJT3Yw801cpGmNwTCii/e74ZsIWPEt6Uh1/jR9iX78Y+9z5Oe3oWkPFj84I4vC2l70bhn30jD7HDD3PflvSgd05jnnb5gJuk3vpMVPkw98u5/Jw97Ji2ejLzwku7sDTR7/IYf/TTG35SBhIln8PuCBQsiF5ZB+pnc8k5VqOxZBvnxO9/5Thy2sLHk6h/qAz98li/DzmH8LP5jD2sa9m1MHlXIS5VlCphdVn4PG62x/PC9XXbZpV39yTv8b9/DsBcZuQPcIp7NjrSqB9op9i7f53s+Zpflf7B8hUmLg87CaQr2fYsj/JHUXeBz0EEHxe8QZ357yOKSOCasftpxP0kr2lZ+fWHup+klwu+WVzDoBkGnA/U48ohB1rmHHeHjOfyWTFPD9xvG8oulM7+4i3vY8/1rrrkmensZpIftjzcZTsaV3/4z48NzFr5Gy8Si8qqKcgK/WXjwQ5pumzyoH+z75N+sNkBWeYv/LM+RRp1h1qxZ8Xco93zwj4WPeCkDcVK1jDbatyBcfNN3A3+YbOFW0g3Kf/p1Pn4+LSpj7bm0dg/6Gqx+QbYoQ0zu8EuyrM9yx4fywvy+3377RXdFGbp08ABGjhzpEs4SkIrOKvc0/MIWQ+ExcOBA15jiF6UfuDVs2DDXoLIMiVAlQRh5ztziXdzB+O5MmTIlfqbeCo4GhvmBgtLctwKPgtM/PofC2MLj+wM7wk2DKckll1wSv3/ttddGd8tz4YUXunftO/g3WQD4UIFwxKaFi4xM/JqfKdywI6NPnTrV3TP/JRvNpKcffj89+/fv79yhgPSVw9TbgOcb1kjBPXPflJMVvU94CYe54YeXX6uMfVlKc8eXlaJCrV4oQM1tS8es47gMCl7zO+8Q34TJ4h47DP720+iWW26JXGjD4idNHix+sOMZUw6UFn6/kkmDitPszX06fEZROqZhsmzvYZJ+q1Le7T4mD3smT06KwkvlT9llaYwf/TQ2f2OHbKNoi7Am8dOlbLyWZUUve3x4Fj9bA4k4oT7ww2f50r5JnsB/aekG9hymiCrkpaoyBYryO6CQ0X/Orz95h//NjoYwdb5BXWl2xHleuyMNf/ALw3GPPmX8b/YYZKkqSEuTO8tbWUdfG37jHOO3hywuSX/aIf4RoyhPTNKKttX5558f25v7++67b2S7DGR09uzZ7cKGoewweTS5NkO65uUr3288a25YOvPLPez5JV8nO5kGceW3adPiirS09MT4VF0mFpVXjZYTfoeUQYZ68ScdMf7gVRn/+2mXV7/mYW4Qp0nuvvvu2H38U4ZmyGgVfQvu4YZ9G3+YbOGW7wb5OW0gw28/FJVx9lxWuuC+lbl81+QOv1hZ75c7Rek7ffr0+NmbE8qGRT5dPnhAglniYWhMFkFhi1ZMhMjPUBQaViGhbZZMxegjdmTCtFFpniNz+G7xy/8UENj7DcR6KzgaGMwomcCboYAxKAwRYhobfgWB4X/uY+83fHwoJKwg78zoGe/78ciAThG8Q6VAfNu3MVxb3C1cuNBVNIxWmv3MmTMjF5ZB+EnPpFsUpFQ0aH0mLe0+bvv46ZO0Mxgpxn0/nPZsmfcJB/5AVvwCHvdM5vyZzDR3uGf2na20siB+fBlDbrIaKwaySaOdisOXO8JEGAkr9qQ1hbbZM7ORhG8hD0kZNvmlYuQZq0jSwm92mDQWLVrk/OrLyKBBgyLbzg0eAOHz4y7Nb1XJu93H5GHP5MlJWbklDclHpKkv/+Z30hnZzuo8+elST7yWYUUve5LgZ/yOn8g3flljhnvkA+oEThrKajyC/14ZGpWXKsuUovxuEAeWhv43MXzT6s9k43jo0KHxc3mrXfLwV0Im2xhl/G/3MchSlRDXvvsMMBeB7PFeUu5M5sh3tEOQE5MNVg2l0ey2FTKE+0k5S3aIgTxC2Kin8/IVdjzDoFRevvL9dswxx8QynyxD8N+9997r4isP4hQZTZZDhM3KoQEDBsT3k1RZJpYprzpbTiRX++StMs7DXyWTlL8i//tpl1e/5sFsO+8fcsgh0Z1l2OktpF09VC2j0GjfAnDD2nZJP+EGcU35a32uJH77oaiMs+ey0gX3CTff88sVjF+uFLlj2IkfyGxRHhXtWYk/YeR1GSjoCDNM9F/b/qH1Suw7ZA8fOg3CBI/3goWVtzs7d5NNNok1O6NHwfb77bLLLu00PhsoqwkLtditXr16uf0vG2ywgfML75s+hiFDhrTbz4jCH9OtkLQzzK/mD0iG8/3333fPoGAoLGyju21hQm8CYcpThIOSpLDz6vyNn9ZZZ53IphzsFbJ47Nu3b6GGYcDP7PfjXGH2VkGYmd2ZrBZ38Pvf/z7W4oo2U1+hkkHcsE/Wd4uwEA573hRrEhcozzH89EnaGebXN954o0M4y7xvICsvv/xyvN8NWUHhDO99+OGHue6YrKA8iLDZs1WBeyZjyA3asovAz2Gj2ik6NLkjTKQh+79IQ/Yj+vkUGUfWk6TJsMkv6Y47YYPaxR3hDysd94xhdjAq2t/mY34NG0qxjPjhrCcdk/hxl+Y3qELeTYYhLYyGPZflFygbXuINuUXJEPsETf7N7+uuu67LC1lYuqCjJqycC/er18uKXPZkgbvUSWFHKM4TBn775Cc/6dzIqxOgrLz5NCovVZUpRfndx9KQ+PLrT+LK2gTJuEJnkrlLWuSFKQs//cFvY5TxP+nD/mh0XIQN62DPPfeMbBrHl31AR0OZveXJOg7SZM7yLWm79957u3tJmt22wv0XX3yxXZrnhROZMzlJy1fICn5Layf6nHbaae5sfKBM/M53vtMhrXEPeS8rV2llGvKCG5RDRfVjVWVi2fKqM+UEbs+fPz/6LwiGDx9eWIal4ctGUv6K/F9FO8zSIi1ezP2ssqqIqmTUID6S7TLAf2X6FmBuJP2EG+aftPwJvtxm5WOjTLsHKDfwD+5aGuOuyXkZd8ivAwYMcHGCfo56Tzpa0enywQNRDTRAhg4d6iqNCy64wFVuontCI6xfv36dqrSE6AooX6homzF4IMSKDPkJBWBVDx6I5pEcPFCZ2PNQO2zF5swzzwy++93vugEG2jdlB/lEGxo8WE5gFHjChAnBD3/4Q3cUE+f5MvoL/lEwovXMnTs3ulrWCePIoakZGpqF6G5YBwfNzVnH6Aoh6mfkyJFuNpbZxrxZOdF90OBBz0btsBUbVsuw+puTGzjp6Nxzz41sRFk0eLAcwRIyluiQMThrla0MsNJKK7lf0TVYFiNdOF6Nc3cfeuihdsfiCNFdoaE1duzY4IMPPnDHlZZdLimEyIfja4855phgxIgR7kg70TPQ4EHPRe0wwTYxBgxYeXL//ffHW3pEef5P9CuWA1h2wygae4BYgUAhKboPpAfnMLOtxD9jXojuzMMPPxz8+9//Di699FINHAhRIZyDP2jQIHeOvxCi+agdtmJD+l911VVON8fkyZM1cNBJtPJgOQNlK9/61reC6dOnByeddFJw0UUXtVOaJVqPKTcibdhOsuOOO6oTJnoMKNiiwh08eHAphWtCiHKw33qVVVbJVZ4puh9aedBzUTtsxWb8+PHBFVdc4VafoPOgMwo7hQYPlkvYvvDEE0+4/ZNpWvGFEEIIIUT9+Nr+8066EUJ0L+z0h86esCPa0OCBEEIIIYQQQgghcpHOAyGEEEIIIYQQQuSiwQMhhBBCCCGEEELkosEDIYQQQgghhBBC5KLBAyGEEEIIIYQQQuSiwQMhhBBCCCGEEELkosEDIYQQQgghhBBC5KLBAyGEEEIIIYQQQuSiwQMhhBBCCCGEEELkosEDIYQQQgghhBBC5KLBAyGEEEIIIYQQQuSiwQMhhBBCCCGEEELkosEDIYQQQgghhBBC5KLBAyGEEEIIIYQQQuSiwQMhhBBCCCGEEELkosEDIYQQQgghhBBC5KLBAyGEEEIIIYQQQuSiwQMhhBBCCCGEEELkosEDIYQQQgghhBBC5KLBAyGEEEIIIYQQQuSiwQMhhBBCCCGEEELkosEDIYQQQgghhBBC5KLBAyGEEEIIIYQQQuSiwQMhhBBCCCGEEELkosEDIYQQQgghhBBC5KLBAyGEEEIIIYQQQuSiwQMhhBBCCCGEEELkosEDIYQQQgghhBBC5KLBAyGEEEIIIYQQQuSiwQMhhBBCCCGEEELkosEDIYQQQgghhBBC5KLBAyGEEEIIIYQQQuSiwQMhhBBCCCGEEELkosEDIYQQQgghhBBC5KLBAyGEEEIIIYQQQuSiwQMhhBBCCCGEEELkosEDIYQQQgghhBBC5KLBAyGEEEIIIYQQQuSiwQMhhBBCCCGEEELkslItJLpuKtdee21w6623uuvRo0cHRxxxhLsuQyPvrij8/Oc/D6644oqgX79+wUUXXRTdDYLf/OY3wdlnn+2uk3ZFNPJud6XKMPlyOWnSpGD77bd311Wi9GvPKaecEjz33HPRf/msvPLKwQYbbBBstdVWwRe/+MVgnXXWiWwEtEJ+q0L5oD315IM0lod4yGsX+GnezDbDvvvuG10Fwdy5c6OrcjTybnfEj/My9OnTJ9hwww2DrbfeOth7772ju2J5olV1jPJhPn//+9+DRYsWBb/61a+CpUuXBm+//XZksywf7rHHHt26DVAFf/7zn1291xV130033RTccMMN0X9BMGXKlOBzn/tc9F85utL/HWDwoBWceuqpDFI4w3U9NPLuikDYiKwNGjTIxc+cOXOiu23cc889cdwNHjw4uluORt7trlQZJl8ucbcZKP3aQzgsTEWmV69etbXWWqu2ySab1IYPH1676667IlcEtEJ+q0L5oD315IM0szzEQ167wE/zZrYZ7BuYemnk3e6IH+dlzGqrrVZbb731altvvXXt2GOPrb377ruRS2J5oVV1jC9X9dLIuz2BGTNm1Pbff3+Xz3r37l1beeWV24XZ8uGQIUNqEyZMcP2J5RHigXYgbcKuYMSIEe3i/YwzzohsytHV/k+ibQvLARdccEGwZMkSN8Oyzz77RHeFWL5hxJwZ1Cyz+uqruxH2F154IZg/f35w+umnuxU6QixPFOWDNLPRRhtFbwtRPaz6SpM737z33nvBn/70p+DJJ590M3Lf+MY33AypEKJxyEvjx48PJk+eHNx5550un1FXHHzwwW4VCObUU08Ndt555+Ctt95yqxKuueaa4Ljjjguef/75yJXlB+KBdqC/6qJVEJ/EL1A2wnXXXVdXedeV/k9Dgwc9HDpDLAvr1auX6xytuuqqkY0Qyzc0Nq+++upMM3v27GD69OmuwgQqz3POOUcNVLFcUZQP0swZZ5wRvd1zYSsCy4wx2srYvdh4441T5c43pNvYsWPd8wwkUF7feOON7n8hROehjUO9wKAckyds2WSZ/LRp04KzzjorOPbYY505+eSTg+9///uuIzts2DDXMb3//vvdAAJL5JcniIeuYsaMGa6MgzFjxrhfBk5/+tOfuusydKX/09DgQQ+GAoLOEBl+1KhRy/1+JSF80GVAhZdl2MN36KGHugrTRntZoUPlKMTyQlE+SDPbbLNN9HbPZYsttnD1HoZr0X1g1Vea3PmGdKMjw4pJoHF91VVXuWshROdhcI7BOPIUkye0gY488shgyJAhwaabbhr07t3bmfXWW8/VBV/+8peDSy+91K0I+uijj1wb6dxzz41cE41CWgBpccIJJ7hruPzyy6OrnocGD3owjNLTGQIUaH384x9310KINliJg7JEKk2gYrznnnvctRBCiK6DjgyznAarw5a3GU8hWgn5h4EAm+lmZQFtoDXXXNP9nwZ9h4EDB7ql8UA76Sc/+YnyYgWwOvyll15y14MHD3aD/TbRS/8NRbM9kV7R73IBicS+kt/97nfBv/71L3dvrbXWcppE6TyU0ehLZrn++uudRtJXXnnF3WPWcvPNNy90w7S2MpJ+wAEHuNMPFi9e7PyCP3bfffcOGqHnzZsXPP300/E+Fr6FhniEjAzPCH4WjNKTyRHErlx10Gg4gFUUt9xyS/DUU0+10yLOSGiRG6Z5nGfRQoqGX0ZO8Qv+2GGHHdwSrSI/JDFZ8MPFN77whS8sV9qhl9f0M6gYKbAXLFjg/n/mmWfcb5LuUn5YPGThazXP0yRflfziDmmLOxYmKJO2PYmeVn9UTVL+rFwwP5hdUn547vbbb4/jzcK7//77F9ZLvPvQQw8Ff/jDH9qVG2XKn7zTFpYX8vIeeiuQkzKnyCDb9913n2vEWloyC7blllvmuuHHMdsMFi5c6CYtzC+k73/+53/WrTXchzQ28Jsts05CGBhc8PMW1JNHG83j9b7va1g/7LDDgoMOOshdJ/FPT8mTZcp98gzMnDmzQ75opKzuTD1cVR3T3bGy0A9nmTLKp1VtJOqNP/7xj+49VvhQrpedWERnGnn6/fffd20mfn0621brbPnj09n8b/WaT1Fbq5F6PAl6JOinAVsWSAu+j0wRF7NmzcqtJzvj/5YQKU5sOnmakYsoehctvaHAxtpE0bJuz4cJ7u6V0eh72WWXOW2WaB5FA6m5gXvmBtpIs9yw5/HjUUcd5dwxv+CPMGNGT9ZqF1xwgdNuyjPY+d8KM0Otf//+TkNqmFGjN9rzwAMPxO+FFUp0tyONaBov826j4QC04PMMWvF5x9zAmBthpst0A7/xLL+kIe6YX/DHxhtvXPvrX//qni0bH/jJZMEPF/5BDgi3L5fN0iSs9GuffvYspp4499MqGRfdrfzISivDT9e08hCqkl/T8Nu3b992YTK3itK2KpqZD7pb+pepPzqbD/Iw93Ab+bFywY8PX36AMPOcH28WXu7jThrEAXHBM8hWstzADV++XnvttejNZfjym8wHZfJIFdg3MPVS9K7l4ay8x33ss+IYyJdjx451acY7flriJm6MHDky0w0/jmlzDBw4sJ1fSOf58+e7ZxvJo/YeJinPfhiSeQvj51FkKo1G83hn3yde7TnkOAtf/v18noTv8EzY2ah98MEH0d02Gi2rrUzht6geBpPPRuuYKrBvYOql6N2e1kbi2ty+8sor3b16ePjhh2sLFy6sPf3007X33nsvuttGvTLSaPkDjeZ//9mkIRxJGq3Hfai3LL35ffvtt939J598MnaX7+S5Zc+lmTT/t4rlYuXB+eef70Z3WabDSAyju2uvvbazYxQbpRSMWDG78f/9f/9f8N3vftfZ+bC0h31BjNiFwhjsuuuuwdChQ50dbqDlEjcYhXrnnXeCSy65JHOUkBEyRqxCoQi++tWvBqEAutkVRhaB0eipU6c6hRmhQDntp2EmdHavv/568Itf/CJ49tlng9///vfBv//97+DHP/5xh28xgmkjeAceeKD7bTVVhIO4QtEjI/mMzjFSutNOO7k4w42wIHMjdMTnm2++6fYIZc1yMKp54YUXBmFGdPu7kAHS7mMf+1hmWqVhfiK9AT+xfx4ef/zxICzoXLg/+clPuns9leU1/dIg7xuMdvt0t/KjUaqSX9IKf+J/SKatyUeZtO3O9LT6o9mQD5EfNET74cAPYQfAzTIhP8xKoWiL/Mr+dcoO4hC5IM//5S9/cTp5kJtkWL/97W+7OMctyh5WVWy77baRbdu3fvnLX8byxZJb4ndFgbi3PJyUJ+KYcpVz25E34pnl/8m8hxtsCWC1AG0FZDvsoDjZxo0nnnjCpeerr77q0hzyZtRQssnMK7OTpBVlALLNDGUjJDW7+7NwzNYmwzBixIi4nvLjgnggf+Gf5Mx9o3m8s+9TXiLfyDl+TIO8gr1BeNIgDggjMPPozyZXWVaXqYfVRuqebSTykuVl2G+//aKr8gwZ0rbFM48yMlJF+VNF/udUCbDVmmD31l9/ffdrVN2Oo59mefvzn/98vHVks802c3KAv5EtVnN9/etfd3ZJ6vF/S4kGEZpO3ixBEXnvMrLjj8aGQlYLM2HtjTfecCYU4FqYgPHoD88mZzEYUWf0B/s+ffrUZs+eXQsLwHZuMLoeJrZ7Jsz0tfPOOy96exnYYRihwh38EmYM54a5B6EwuufwE37DffsWfuc9wsIzoQDX7rjjDveej40u4kZyBNqH0V7zV72jVEXvNhoO0mHQoEGx/ZQpU2qLFy+O4ww3woKhNn78ePcM8RpWmtHby8BvZo87YYM2lgH8hDGKwhQWhrGfMGEmdX6ycDEai3yQvv4oKu42A6Vf+/SzZzFl45xRbSsjMLfffntk0z3Lj6J09tM1WR5WJb9LlixxswLYZaUtccWMAM9Y2vL9ZtCsfNAd05+4zKs/oDP5oAj/+6R52GhuFw6uR48eHT9HXOBPv+zAv+R5KzdwK1luIFsWn/Y+cmnfsW8Rj/iD53g+Ge957YK8PFIl9g1MveS9yxngZpdMB+KYvGh5D5N2ZjgzmZbHKYN92cYN3CRfWxwzo5YXx7jFdyytcAs3jM7kUcoL/GnvITc+P/rRj+IwkH8Ig8maHxeUc+bGjjvuGL3dRqN5vNH3ww6cu084kP0kzGxj75u0584888zYnjxmVFVWW5mCPe5k1cPdrY0E9g1MveS929PaSNQzPIch/qumrD+givKnivxvz5o9xu6FHfvoqerqcR/8Yt+8+eabo7ttXHLJJbFd0s8+9n17FmP3fP+3mh4/eLBo0aLY7phjjonutofONYJMAdCvXz/3js+IESNiN2bNmpXZGUdIrYJAyJKCbm5gTjvttOhuRyyzbLPNNpnfmjZtmnsO/1544YXR3TZYxmMZiuVUeXSmQjeK3m00HBMnTozDccIJJ2RmBAocy7C4lVziZAUaZrfdduuw1MqnKEwzZ86M/URDmQyahLBSqJk7mGZVjEq/9vjPFsU5jSqWoFEp2TuEw/dndyw/itLZT9dkeViV/Podk7y0pUL1G098vxk0Kx/0xPoD/HxAHTBq1Ki6TBr+9w866KDUNGfgzX+Oxl9aeCkr7JnktjoanMQj8nLuuedmxhf3WdJq7iTjPa9dkJdHqsS+gamXvHcpB80uL+9hT1wefPDB0d02KGNp3GJP2UsZnAZuk7/tW5TpPn4cI7s01rOoJ48i+/iR7TnmTwz1jc9xxx3nwofdggULorsdoZyjwc9zyJVPo3m80fepg+x92+7jwzYF7KwczXpuu+22c3aE068jqyqr/TIlrx7ubm0k8L9TL3nvEk/c7yltpMsvvzx+bsCAAdHd6ijrj6rKnyryv2HfwKRRVT1u0P40+cFvybSnLDV7fhm8yMP8hukOtMwXeRV9EXnv+hUWozdZCclo6L333utGrvzCjo64JSAFa17HBagg7HvJkSS7j/FHhpPYMwhg2ggz4EcyoI20+cydOzd2I6syM+qp0JMUvWt2nQ2HrZ4g/rMKF4O9W/Y9RjF9/AKtaCSwKEx+AXLfffdFdztCQWCFFaZZFaPSrz3+s0WdJuxtRgaDP+fMmRO51IYfR92l/ChKZ9/PyfKwCvllZskqR36L0vb666+P3WGWrRk0Kx90x/TH5NUf4OeDzpg0fHt/dY4PcmPPEG4/LnzuvPPO+LmkjCJPxCPlSl5nFE4++eTYHV9GoWy7IGlXJfYNTL3kveunL3vZs6AtQFzSoPXxO5Q33nhjdDcd0sOe3XLLLaO7bfhxTNmShx/nlBtpZbIZ9hQzqOsPHOy1114d5ImZP8JHOLMa8wadJXPLp9E83uj7yLi9v+uuu0Z3l2FlLYNsdn3ggQdGtm345Yxff1ZZVvsyl1cPd7c2Etg3MPWS967dJ257QhvJX52SrOuqoKw/qip/qsj/html2VdZjxunnHJK/EwyPQ1/cJyB1DzsOUx3oMcf1RgmtNuLBOxFYY8oGkHZqxRmZHcfOAeaPVnDhg1z55saaGA33QFo7AyFyO0/yjL9+/d3z8IjjzwSXXUkrBijq47gBwgL1yAUKmfY54T7Bn5k/w/Psp/Rh71CxhprrBFdtZ5GwkHa2D4nNK2+9dZb7eI5adBqa4QNpeiqI43uv0STMiBTYUHprtNg71LYAIr+65n09PQjrdhrmmWwZ+8a9OvXz4WN/bo+3bX86CxVyC97M5EJ4Pimvn37uussws5AdBUEDzzwQHTVM+iJ9UeSsIHu5LseUwR7PdPwj/sKG8bt4sInT7s38kQ8Uq6st9560d02iHPiCS3e7PEkH6+IoK3e4Pi0ww8/3O3HDRvSbh+wQd4jLsmnPmhAN9hjnJRD31B2I0PAvl7ffR9fdoug/EiWx76ZH+0dDhvpbm9x2Nlw4UvKE2fQEz7CmZQp/E58ICvUXb5eG59G83ij7yPjuAG//vWv28Uv/reyFp0mlo7JssEvZ770pS+5X2hWWZ1XD6uN1H3bSEXpXyV5/qiq/Kki/5eh6nqcMHCKgnHIIYdEV+0ZN25cdNV2mg2nPPQUVmIEIbpuKqeddppTsAGnnnqqqyjKUvTutGnTggkTJsSJT6GGwJKpybQcH4KCkl122cXZ+3zrW99yynCAQt7PwGmgJAMFKUBFce+997prWGmllaIrNzQUXXUERVAcb4TSDVhttdWCT33qU8G6667r/ExFg9ISMk2aMg4/PmbOnBkceuih7joN/LfXXnu5awp6K/jLUPRuI+GgcLGKhffKdBrt+zzvFzB8wzLwPffcE+y5557uOo28MJFx8TtQaD3++OPuOouLL77YyR0UfbezKP3a4z9LhbPKKqu46zQ4yoxyAP9zxA7hWXXVVSPbZXS38qMonf109cvDquSX+EBJERx//PHBD3/4Q3edBwqAqHChGVVKM/NBT6s/wM8HU6ZMCQYNGuSuy0KeSFL2+2XkNEtGfSgD7r77bhcOlF3RQCd+PvzwQ/f/u+++GyuIg2TZkNcuKPP9KqgnzZLkvcugJ2XzokjJHh1slM+Rvz/96U+7gRuUTCKTyGgSGtp2PBiyUgTHx9GRB9LD5Kmedpsf5/g3Ly9QDlM+o/iMcKAgLjlJ4kPZdsstt7gOAh0y8iqygawgMyieM/9DMj4byePQ6PsoDp0UKTnjyDqrO638wL2XX37ZKWA766yzgl69erkjhU1xHmUFyvl47sUXX4wH8aosq8vUw92xjQTNyoc9rY30s5/9LB5cYgDan2isgrL+qKr8MRrN/5CXzlXW48BAgCmrZLB+yZIlqW1P3KEstwHAyy67LM7PSRqR8aYQeqIlhBUPoXWG63ooejeM+NrVV1/t9tbY0hMz7DcKhcEdMcQ+TpYX+fhu12vCxlPkShu+XR4sv2EZDvvFwsqg3XuYsFByS/rCitjtl0vi+znMwNHddLC3Z5P+LaLo3UbC4bvdGeOD3+x+I/Hh720sE1e33XZb/HzRdztLURrkUfRuT0w//1n2W7OkLcuw5O35558vXILW3cqPonT2494vD6uSX3/pY1p5m4afLs2gSJbzKHq3p9Uf4Md3UZ4pS9nv2zN56ZAlowbxyNFl/fv3d2VPMt5Z7ky5Q5rYvWQ4/bhPfqPo+1Vh38DUS9G7bEUYP358u6XfZsLOhYu7sHOSemxY8vl6jB/PeXGcxI/zLbbYIrVMNsO2HJb5F21bAeoewskWNGTF9pCbCRvnbpm0H09JGsnj0Oj7hNeep3w1dt55Z3fPtoT4z02fPt3dI21Jb+4ltxpUWVaXKVO6YxsJ7BuYesl7t6e1kV544YX4OWSmasr6w57pjEm6W0X+B/+dJH45V69Jywd77713bI+fR6Vs3TLjlydbbbVV5EJH7BlMd6BlRzX6o+NhpRFdlcNfjsKIXBJGYb/yla+444PeeOMNN+LHiBvfYcSQozAwjJIyWoQbaSPELH2p5zisUCiiq/pgVI7vMOoeVp5uKdyDDz7oRt8YEWZEDcN9G93KGo0qwo93G20uC8fPGGkzvFWFI6yQ3QxHV5N35EoaHM3TbJR+2TCSz7cbpaeVH1lUJb//8R//EV11H5qZD5aX9O8psOzTP7qMFUTMPlMOEbfM5vHLDN+VV16ZecRdd4A0DDuW7ppw4fcy+Mvdw8ZjdNWesDPqVhlwFDMyTDxQFhNvzLIhixi+ywzWVVddFb25DPx33XXXRf+Vo2wY8qAsqqJsZkkyKx9s+xl+Y8UCeRUZYWaeMFI+UG/ZDHGSRvN4o+8zC4yc8+xdd90VfOc733EzyzwPI0eOdL88ZzLFN44++mj3a7OqX/7yl92v0eqyuju2kaBZ+bCntZE4us/kDJlZuHBhal2VB+9wdCBHWnNMYSPlQaPlT1X5vx4arceRKeLQQC7ZqlUGZIijPdkG0+2JBhGajj8CiRKReggFJn43qfAsDUazw0LZHauB1kxG78MEjt3wR2/9EaekVuh6MXcw9cCodlgJuRF5RjnxE6Np5hYjbv7Mgu/nNK28Psy62rOYLGU/afjKqooUM0I94fBHZdHa2ghlR0PB/25yxNCPq3XXXTe6m83kyZPj54u+21mUfu2p59nO0tXlR1H5iLZ6e5bvG1XJL2Ws3T/88MOju/n48dMMWpkPekL90Yx8UPb79kyy/PTxywdfRsFXpsWMHfFMuUO8hx2z6Kk2woZ4/GwynH7cJ7+R9/0q2WabbeLvkC/LQvlq7zFLXwTyzyoqZqaZ2WbVVdghid0IG9LttHXbfWa1GiEvjpP4cZ4nG2WhrmEmzv++rVhATqivfJgBtmeLqCePp9GZ903uSRPKL5QN2vNhpyF6aplCwrAj6P7HbXsvmT+qLKvLlCndsY0ErcqHPaGN5JevJ510UnS3PLxDeUJYTjnllOhuG2X9Yc80Uv5Unf/NLs3eL+carcd9mWc1BKtWioy/aiKpLNUwe0x3oGW+ILEt4FZ4loHnEGR7l2U5PhSeLNtjuViamyw7QpsnZ7SaG7hncOyM3U/ThFsP5g4mCzS24l8yeNryNqBionDyBeqRRx6JbNvOPrX7RRU6+IVblmbQNOxoIAzf9Gk0HL48UJlZgdsZ6ilY/QI9rYFjccXSqCIZJZOX/W4jKP2WUc+zZeiO5UdRhetXdMn8X4X8+ksfk9qP03juuefi5/l+s2hGPuhp9YdRdT6Ast+3Z9LKTwM/2XNJGfU7L3TA8rBl3ZhkOPPyQd73q+TII4+Mv0Mnryw00O29Qw45JLrbBnLIkWXHHnts5uQADWe2NTD4Yu7QaDX8vFJ0BFgeeXGcxI/zPNkoC3WNLVEmPNRHWVD/+O1En0bzeKPvG/4xp5RftuWA+hU3DLTYc5+wU7YymMz/aR3QKsvqsmWKyVZ3aiM1Ix/21DaSPyjFdpqiNPLhWd6x9zkBwqdeGcF0tvypKv8bZpdmX2U9vtlmm8VucRQxgx1FhufsHWQlLc3MHtMd+D+hR1qCKRcBlF2wbNFXCJLFRRddFC/ZCgXILcvx+e1vfxtcc801wW233eaWEyVh2VHfvn3baZk19wBlF2FiuWs04bLkKQ+W0ey7775O2y7LS+qFJU74N6yQgjvvvDO6254w87plTp/5zGeiO4Fblmig8MYoo2HUX4KDwiN/qVYWaBK2ZVhhZ6aD9u1Gw4E82LLGsCHklknlQboQ72HF4LTdNguLK5bTXnHFFe46DRS4oEynFSj9mkd3Kj/CBoj7pXzMKxvnzZsXXXWkCvmljKWsBbQfF5Vzl112WXTVXlarphn5oKfVH8sDlBcGSteyIC4fj5Z1d1dISyPsHJZKU+QWuTSSeYal4eTdG264Ibj++uuju+1hGT3bGlAEa/ztb3+LrgK31cHIKweAsubggw92Jzogl90F6hpTukYeoz7KgvrHz5c+jebxRt83KHsog2D+/Plu+wKEHTLnhjFixAj3S9hnzJgRa+zfL1LA5tMVZXUVdUzVNCMf9tQ2EvK0V6S4lK00ZftawLO8A8hVmsyVoYryp6r8b1g+SaOqenzhwoUuHwLuHXXUUe4UliLDc/Z9ZCWt3M/zf5cQDSK0hGnTpsUjJ4wSca4lo3tp2KgfCknsnR/84AeR7TL8UbZBgwa5kdU0GDm059gG4XP00UfHdozu5rmxySabuOfChHZLaHzMDUwWjEbyLs+EmSFzRBM/sCyM55iJ5D0jFC53DztGuYogLu15RvLCjJL5XUa8mO1AGRPPYxhx90fGoYpwhBk+/gbxmucG6cJzyM33vve9yKaNekZlsbdneS+JH1dZ4WKU018ahmnmqLrSbxn1PFuG7lR+hI2X2J2sM5RJW5MFTHI2sCr5paw1u7x4YVbOymi+y/ebRTPyQU+rP4yq8wGU/b49k1Z+GvjJnkvKqC+/WelHHFqZYSYZzrxZ8bzvVwl1cdioi7/F0tmww5c6y8g97JBbe553/TLVCDsdzp64ylp9gHvMkplbzGwbTz75ZFy+85vnBu0w8hPfCjvAkU0beXGcxI/zPNkoS9hRj92jDiqTr8z4NJrHqygjDJNpVhNYPkgq2gs7Qe3qZnMza+a1qrK6bJlSVR1TJc3Ihz21jQQotrTVENbXypILoL6kv8WzvEM4kJckZf1RRflTVf43fL+nUUU9TljMjaKtT0nGjBkTv5vWryvyf6tpqS/IVOzvsAhAUIcMGeIadQiuGQSI+yZ8GJYipVWyFLS2dM8alBTGFHAYlswguP5+mOuvvz56u43nn3/eFfbmxi677OLe4V3cQFiSbhAOvu1jdpg8zjrrrPg53PS/hcH/hAO/8My4ceOiN5dhBQ0ZLm2Jiw8N5u985zvxN3GX7xLPfryTDmg19SssGjEsq0mj0XBQ4PsVDG7gD+Kb93Er6QaFPEsEfeopWLG3Z3kvSTKu8BNLSC1cFKhkcitkzaR912QZQ2XVWZR+y6jn2TJ0p/KDJYJmTxom5Y645r6/RDLZoK9KfilrrQOTFSbS2u+c891k5xx4rrvmg55Yf4CfD1ga7Ie/rMFfPmW/b8+klZ+GX84mZZT0MTvixI9viyvikLj0ZZ37Pnkd27zvA3JoMklcNAJ+ts4UhoYlMsW2A4tr8i73sCNcPEfYkmlg3HnnnbGbyLGll8VTMh8jf5THBnnl8ssvj/2EG/iB98wN4sB3g+8tWLAgcqGNvDhO4sd5nmyUxe8QWt70/c818WL5ypcV7I1G83gVZYRxySWXxO7Ys76+A8P0HpjJGoyAqsrqsnVrVXUMdPd82BPbSEAaoYvD8gRpgVyQTn4ewh+EifrS+lvE4dSpUzvUT1CPjDRa/lSV/w3f75Z//QGCRutx+mH+ZHeZdPLxByn5flImi/wPlpcwaXFQJS0fwqABx0CAn8mJKATXjN3H8ByVVjIz+bBv0i88+/bt6wYfMByfY41Ic8uvZA1Gj6yCwPAO7+IGwmJuYMgEaQ1Rs8fkwQgycWDP+t/C4H/CgR3CiVAnsUoIc+2110Z3s6GCQclSMn79eLdvmuHb7KvMoopwcM+XB/xBfPM+bvlukMZphXw9BSv29izvpUFcISfmJwoECxcVMPcxVtBkfdf3V1HDqwilXxv1PFuW7lJ+kMZ+eqTJHRWkr+QpTa6qkl9kh3S3Z5JhMlnkd9KkSe67aXT3fNDT6g/w45TGlx/+siapGKrs9+0Z/JCFX84m05ywW6MQ48e3xRVxTbr5+n1QnuiDu2aX/Ebe98F/Ny8cZaChPHv27HZhwvjpYnnRDHmPfJzswBk0SGnA23u4YeUqxvKxuTVv3rzozWUgp35e4XneMzfoQJkblCscRZj0T14cJ/HjvNE4NeggmP/Jm77/ubb4xW9+2Yn+AZ9G83gVZQQwUMBzZoj3NBkwvQdmipS4VVFW+2VKUd1aVR2DG2bfHfNhT2wjGZQhhM3kFkM6+XkoWTcRd5QDWfJbjz+qKH+qyv9w/vnnx/aWf/fdd9/Ito1G6nH6YWZHPKYNvuTB835+4bhHnzL+N3tMWTnpLC0fPAAGAsjkJDaRZcJhhv+5jz3PZS3X8qHwpFAkoyTdIyFJ6CK3qCDMDX8Uy9xAqDh7N62AAP/5IogD3MLN5Lf4376V1sgEwmHhLLs8hsx87733uoyWFkYyssVV3rd9Gg0H4AYFB8/y/aQb+JV0IY3TCvl6CjTs7dm8yor4RV6oEPxwEef4Ezs0t9v9tO/6/iLOG0Xp17lKtAzdofwA4jLNH+YHtHsTh3Y/S66qkF8g3dPkw2SNMpqKOmvgAHpCPuhp9Ycfp501ybTw7fKwZ/BDFn45m5bmKBlDdogXew7D/8gs5QnpRlpbA3OzxFJO3LX3kt8o+r7/bl44ykKeJEw0ltPKQYzJAM/QSE0rC30IOzKH7CXdQ0aRM+Qtzy3cIH+aGxaX5oa1syhX0hq7eXGcxI/zKuIU8BP+T5ZjyfKHfEmny+xZPpyk0TxeRRlBOvkdhAMOOCCyaQ9p6rvPMvAiGi2r/TKlTN1aRR3TE/JhT2sj+eAWbuI/0olv+2WAfR9/8X3iLq/TW68/Gi1/qsz/PMPzSXeSW1s6W48PHTo0fg5lqJ0hubXfX1lQxv92H1OPnHSGlfgTfqjlfPjhh04xx2uvveYUZqAkzAgjxCkNWnfddZ2SDF+ZTB4oOEG5zFtvvdXOvVBI3Tmgffv2LXTL3AgTpJ0CDtxYY4013Hmvq666anS3Pf5ZnqM85TlZvP/++065xl//+td23wqFxp1xnfct+PrXv+7OwcZvzzzzTLuz0POweE+GsVevXi7ecYe4z/u2T6PhAHMDP4UFTnS3zQ3ifYMNNnAKaNLg/Gt7Z8iQIZnPAen7q1/9yl0Tb2EB4a7TQEbDAiJ4/fXX43Ahm2uvvbZTVIWdKUdJ+675C8UqYSXplLxVwYqcfvU8Wy9dXX4Yaf4wP2y66abufytrcA+FO2k0Kr9GmnyYrKGwq6iM7in5oKvTv576w88HnSUpO2W/b88Rpqzyk3iwcjZLRjm7++WXX24XDtz85Cc/6eLa4gmFVCjOIl3986+p80x+k98o+r69i8IrvmnPNgpKviz9k+ljMkBZiMLDMpCHiSeUz/nukY+Jp7xy1fDdoK1lSsj8dhbxnUZeHCfx4zxPNuolrRxLK3+IexSWAXFCmZak0Tze6PtAHOEO8Hya0lDKXJQqGijzK3IXGimrO1O3NlrH9JR82JPaSGnwbcoA5NYvA8DCQDlQ5G5nZaSz5Q9Umf/xx4svvtguDdPyluXzeupxFFlbmUCezgtTFn4ZCrvssks7GS3yP3Uzyh7PPvvs4J577gn23HNPd78ZdNnggWgchGTo0KFOYC+44ILgtNNOi2xEd4E0GjBgQKWdJiF6GsoHojtCB7xfv36VdVqEEPWjfChENdC+4tQMDR6ITBiRmzBhQvDDH/7QHd/42GOPudE4YJZPdA1z586NrpZlZI4P6uyxN0L0dJQPRHfDBrROPPHEYOrUqdFdIUQrUT4UojpGjhzpVi2xcqLeFSr1oMGDHg7LWFgeyJIgzoZlKwOstNJK7le0HstSVIpjx44NPvjgg+CRRx4pvUROiOUJ5QPR3aC+POGEE9z57Q899FCw/fbbRzZCiFahfChEddx0003BMcccE4wYMSKYM2dOdLc5/J/oV/RQ2Fdz1llnuX1ErECgMBbdg4cffjj497//HVx66aXqMIkVFuUD0d2gnnz00Ufddr+tttoquiuEaCXKh0JUx2233RYMGjQoOOecc6I7zUMrD5YDUBTyrW99K5g+fXpw0kknBRdddFE75VeitZiysd///veuchw8eHApZUdCLI8oH4juBnUm2/x23HFHDWgJ0UUoHwpRHegMWWWVVVKVsFaNBg+WE9i+8MQTT2RqGRVCCCGEEEIIITqLBg+EEEIIIYQQQgiRi3QeCCGEEEIIIYQQIhcNHgghhBBCCCGEECIXDR4IIYQQQgghhBAiFw0eCCGEEEIIIYQQIhcpTBSiB/G///u/0VUbH/vYx6IrIYQQQgghhGgeWnkghBBCCCGEEEKIXDR4IIQQQgghhBBCiFw0eCCEEEIIIYQQQohcNHgghBBCCCGEEEKIXDR4IIQQQgghhBBCiFw0eCCEEEIIIYQQQohcNHgghBBCCCGEEEKIXFaqhUTXTeXaa68Nbr31Vnc9evTo4IgjjnDXZWjk3e7KvvvuG10Fwdy5c6OrcjTybjM45ZRTgueee85dN9s/v/nNb4J58+YFp512WnSndZx99tnu+7DyyisHc+bMcdf1kOd/i8dTTz012GWXXaK77fnf//3f6KqNj33sY9GVEEIIIYQQQjSPlg0e0Fm68MIL3TWdo+9///vuugyNvNtdWWmllaKrIKg3CRp5txkMGTIkeOSRR9x1s/zz97//PbjooouCe++913Xc77///simNfD9TTbZJPjLX/7i/u/Vq5cbKNl7773d/0WU8f+MGTOCI488Mth5552Dm2++OVhnnXUim2Vo8EAIIYQQQgjRFWjbgugR/O53vwuuuOKK4Fe/+lXwz3/+M7rbOn7605/GAwd0/j/66KPghz/8ofu/DGX8/+UvfzkYNmyYG4g599xzo7tCCCGEEEII0fVo8ED0CN555524894VXH755e63T58+bqUFLFy4MHj++efddRFl/L/mmmsGkydPdqsafvKTnzj3hRBCCCGEEKI7oMEDIQpggGDJkiXuevDgwcF+++3nrt977z231aBKhg4dGnzhC18I3n77ba0+EEIIIYQQQnQbNHggRAEMEPzrX/9y17vvvntw8MEHu60LMHv2bKfPoCo+/vGPByeeeKK7XrRoUfDzn//cXQshhBBCCCFEV7JcKUyko8WecvaXW2dvrbXWCjbccEO31LyMcrs///nPwfXXXx8sXbo0eOWVV9w9Ooqbb755oRt2CgInQhxwwAFuj/vixYudX/AHHU87KaJZChPR5s+pAGAnUxAv9913X3wiAuHZYYcdgj322CPYfvvt3b08cPP222+P49XiY//993fvl1GYSAf77rvvDp566ikXt8ysG2wFII3S/GPhYck/aQvEJboBIOv0DfOz/y3e23LLLUuHG/D3dtttF7z44osu3C+88EKw3nrrubRcsGCB22Jwyy23tDsBw6cz/n///feD/v37O/nbdddd3XcMKUwUQgghhBBCdAkMHrSCsNNPr9IZruuh6N133323duyxx9a23nrrWu/evWthhy5+PuzwuXvY8QzPZnHZZZfVhg8fXgs7h7XVVlstdgP3zI0JEyZkumHP48ejjjrKuWN+wR/77LNP9OSyZzH1kvfuPffcE9vhjwsuuMD5O+ywxvfxE34LO/0uzHnwPs/58Wrxwf277rqrNnjw4NjtNHhm//33r4UdYvcecWHPY4hr88+MGTOit9rww5NmkvJA2pBG5mf/W1yXDbdxxx13xOHebbfdoru12iWXXBK7u/fee0d3O1Kv/43x48c7e/y8ZMmS6G6t9tFHH7UzQgghhBBCCNEKlouVB2eccUYQdgbdHvR+/foFI0aMCNZee21nx0wxmvKZfQ47qcHxxx8ffPe733V2Prg5bdq04I9//KObYWbGl/3ngBvz5893M8HMGjNbHHYeg9VXX93ZG7YiYKuttnIz3mFH1e2P57sPPfRQMHLkyOCEE05wzzRr5QFHAe61117uGn+89dZbwZ/+9Cd3z8KDX8JOrbvu27dvcM4556TO3hMnU6dOde8TJ/vss0+w7bbbOrt58+a5ZfVbb7118Oabbwavvfaau5/0DzPvhx9+uFu1wAkFzLhvs802cfq8/vrrwS9+8Yt4VQTHId50003xygBm/H/84x+7NGBFCLBS4eijj3bXuDd8+HB3zSqBb3zjG8Gtt97q0pu0GjVqlHMTHn/88eCuu+5yqycId9hBd7KVx0EHHeSOTQTS/OSTT3bXxAnxa3L1wAMPpK5mqMf/PihL/PznP++uTznllFj+tfJACCGEEEII0SUweNAKmGHlc5is2dYs8t4NO61uhhm7sPNWCztdtbDjXnvjjTecef7552u33HJLPPPOs7zjE3b83Iw09mHHrjZ79uxa2NFs58b8+fNrYUfPPcNM+XnnnRe9vQzsMMxU4w5+efXVV50b5p5hz2LqJe9df6YbfzBzPWXKlHbh4Zp72PFc2LnuECfMdlucEHdXX3117emnn47dWLx4ceyGzcxjkowdOza2Yzad9/z04Zp4Gj16dPxc2FmO3q7VPvjgA/fcnDlzYvsBAwbE77/33nvRk22rAUgbniGt7r33Xpd29iz+J21JG54hfKyKyII4MbkhnKSlz3777Rf7yfezTz3+9+G+pc+WW24Z3dXKAyGEEEIIIUTX0OMHDxYtWhTbHXPMMdHd9tCBGzNmjOsI9uvXz73jM2LEiNiNWbNmuefToONrnUk6nskOt7mBOe2006K76fjP1kveu8ll8ieccELt7bffjmyXwb1x48bFz02cODGyaYMtHmbH1oW0Tm7SDUwStjTQWccwUJDFI488Ervhbw8w/HDhZhLSom/fvs6eNCKt0iBtSWNza9ddd41sOsLWBntu5MiR0d1l3HzzzbE98pC3JabI/2lsscUW7nkGEUzWNHgghBBCCCGE6Ap6/GkLKJczOE4PhYdJ0GD/7W9/22nGv/rqq93WBoNj+Fh+Dyw7R/Edz6cxcODA4Itf/KK7Ztn6gw8+6K7T+PKXvxxddR1hJzqYMGFCsOaaa0Z3lsE920IBLK03WP5vS/VxY9y4ccGqq67q/vdJupHGRRdd5JbrY9gqkIW/5P+f//xndFUetmGw5QQOPPBAl1ZpkLaksckAih7TZAauu+666CpwcZCEIxX79OnjrpEHtsdUCds7gG0WbHsQQgghhBBCiK6ixw8e0OmkgwtPPvlk8NWvftXtEWffPAMDxhZbbOG07LPHvHfv3tHdwGmyt5MZ0PjP3nv26WcZtOAbdsJAGugC6GroQOd12Nmzb53ol156Ke5Eo5+A0wEAN/z4SuK7kQbxzckEGB8GKIhPToK4/PLLg6997WuRTedg8MDYaKONOqSbb0jjzTbbzD1L2qMLIQk6B5AnQL4YKEjC4Il/ygLhqJJ11lknumrT1yCEEEIIIYQQXUWPHzygYzt58mSn0I+OIIoNr7nmmmDixInBUUcd5c7kR/EfncE0UGxoMBiAEr08c+ONN0ZPB8Fvf/vb6KojaTP1rcYf6EiDWfjPfvaz7vqjjz6KZ7efffZZ9wtl3LCOeB502kkHBnbocKOIkPg8/fTTnTLAOXPmRE92jpdffjm6Ctwqh2S6Jc2vf/3r6OnAHaeZhOMXbVCJ1SZpqzfgkEMOia7aVr4QzqrwV8C8+uqr0ZUQQgghhBBCtJ4eP3gAhx56qJv1ZZabQQQ04NMBZsDgtttucycGoIWfgQRmun0+/PDD6Kpt6Tln8ecZv2P97rvvRlfdk0984hPRVTb+qgHbAsIJAUYZN/JWN7DCgAEDOuykAwM7LO9npQDxyeqQT37yk8GRRx4ZvdE5/HQkjZLpljSktfG3v/0tumoDP7NyxXj00UfdgEea4aQKg8GGK6+8MvqvWvzwCSGEEEIIIUSradnggb8E++mnn46uyvGHP/whugrcsXhJmBX+yle+Elx66aXumL5TTz3VHU3IfnRm1OkoMtPMQAIz3VmrEOjgzp07t7RhP39nsa0WUM9stb8Vg4GSRvFn7I011lgjuipHzelwTAddEwwY0GHn2Mgtt9wyGDt2bDBp0qRg+vTpLr04IrPoyMR6wN209MoyyWMqGdzwBxdYkcG9NMNKFx90RWTpUBBCCCGEEEKIHkub3sTmE3bcY23zG2+8cXS3HBzBaO9y5F0RHKnHcYQcr4hm/fHjx8enJGA4Ys/wT3I4++yzo7udw9zBFLHNNtvEz1533XXR3WLCzm78Htr4k/ha/cucaoHmf3s+7CS7e35aHXjgge5eHnvssUf8vA/HPVq8c2IAxz1yCoIdn+if4MBJBeZG2mkERacV+OFInqZRL/7pG8gex0gWGcJn73BKQ5Ii/6fhy+akSZPcPf+kBYwQQgghhBBCtIKWrTzYeeedo6u27QFlZ2d5zp9tT2rRZ3k5y+LZkmBurrfeek5TPUr60LzPrPZVV13l7OC+++6LroJgu+22i67alCe2ih122CG6yle8mMT3u2njz4Ll9nmwPB/lgcBKiPXXX99d+2llSgPzeOqpp6Kr9sybN89tIYFRo0a51SGk36abbup0Vfh6IR577LHoqnOwosHgu50FWWOVhIGehvPOO6/Q+AoV/VMaGuEf//hHdBUEm2++eXQlhBBCCCGEEK2nZYMHdBbtOD72hrN9gM5rEWwNeO+999w1+/Otg2ugtJBl8WxJSDs6EaVz7Mmn82qYe8AJDLaFgK0NRVsIrr32WrfXnQGLpP6EesAN4/bbby/lFh1bfy++HRuZBeHxB16SoPzROve4ZQr6/LTi+MM8v2FnJzMkefPNN6OrtpMs8pRI+oM7aZh/suCUDeMnP/lJoWzZgBO/fhyhuNHkAx0au+66qzupo8iceOKJ7h1gwCW5NabI/2nYwA5kHT0phBBCCCGEEK2gpQoTjz766OgqcHvdUWKY1VnnPh07NOcbxx9/fDsN9MCMLx1gdBswS5zVWf7FL34RXbXvyNFRZnUC0Gn8v//3/2a6QUeZkx3Y686Aha+3oF7olJqyQlZiMJjCwERap5d72B133HHxXnze3Weffdx1FoTn7LPPTnWT+CW+AN0JJ598srs2LK0Y6EEpYFqccA874j4NXz8FqyCyOvT44+67747+S4d0ymPw4MFxuqKjANnK+54NOGF8t2+44YboKggOOOCADvKWBas1LD2Js+TqgyL/p2ErOvxVIUIIIYQQQgjRFazE3oXouukwQ/1f//VfbuAA6FxutdVWrmO0wQYbuHvAjCvP/s///E88M44yQzqqyU4YJwTQyUN7f69evdxWhf322y8YOnSos6cD/fDDDwc//vGP4yX4DEgcdthh7hp+//vfu1loOtS4sdNOOwVf+tKX3C9+ZDsE7/pujB492rnjz6avtNJK0VWQq0TQYDACd+xIwE022cQt6d94442DVVZZxd0jHl5//XXnR1YB0FFHESRKAffee2/3jM+9997rlEUa+H/EiBEuTrbddts4Pug02/L8E044IZgyZUq7jrKfVhYnbDuweH3ooYeCO+64I7j//vvbDR744SY+eZ7w4Q/eJ61Meebjjz/u3mdgB2WKnOxAetNZ5v8kFr/Yz5w507mz7rrrxu7hDumIGxZujPmZOGSLCCsubBDmggsuiJU1kh6sCCE8fIPOO1tgyvKtb30rOP/88901cvrEE0+0UxRa5H8fBmZY0YBfSDtWp8D//u//ul/jYx/7WHQlhBBCCCGEEE2EwYNW8vTTTzsFhr6CubBz6hTrmbH7GJ5DcdzSpUsjFzqCcsRhw4bFbvXt27c2ZMgQZwYOHFgLO4Dt3Ao7l9Gbywg71LWw0x1/l3d4Fze23nrr2A3M2LFjXTiSmD2mDB988EFt9uzZtX79+rV7N+z4xnHhxxNm++23d0oTeTcNXzFfnz59nNvEySabbJIaH6RFVtwSRpQBmnt+vHKNu3wDY8/44MczzjgjDgPhIi7NDfyEHX6cOnWqu2fuoEAxiZ8+5s7EiRMj27bv3XLLLXF8JmWhf//+sXzxXZQQorjRIF3N/TFjxkR3y0M8+ul1wQUXRDZtFPnfZ/r06fGzN998c3RXChOFEEIIIYQQXUNLVx4YzKAzA/zLX/7SzYKHna54hQGEHTy3R57Zbpb3s/e8aAaY/f0/+9nPnLI8joL03WM5edhRC0aOHJnrFjPFzPDiBn565ZVXIps2NzbaaCM3c87qBlYIJKl35QFwfj9xwbJ+Vg1wLKW/1x3s23vuuaebRWf/e9Zyen/lwYABA4KwU+5m2jmS0MLDyoVBgwa5lQAs90cnRBbPPPOM0yXBKgs/XnFj+PDh7phDtpcsWbLE3U+Gmxl+tiTMmDGj3fuWxqwMYLafFShsCWEFBDAzf+ihh7prA39cfPHFbrWCuUM4fIWTFp+EOSlbYcferXAxWSAdbSULq0tQQGn6G1BMSfjqhZUPppdis802C5599ll3DWX8b6CLg5UUxNOLL77ojiMFrTwQQgghhBBCdAVdMngAdPLoWL722mtub7ot3Qc6eauvvrpb0k1Hv+y+czp+L730klvy7rtHB4yl4XSSi9wyN959991YcR7gxhprrOG2FmQp/kMXguEraCzDO++8E3/XOpaGfZuOr3Uis/AHDxgYYGsCgzV0QC08LOlfe+21g8997nOl4patIXSC/XjFDbabMIiyaNGi2M9p4U5739KYMNlgDtsKfve737lrThdIDtAgMyznf/XVV9v5g0GAJIQ5KVu9evVy30yTBfw4f/786L/ADRzkKXjMgsEWdC4A3/O3lpT1P88w8EN6obuBAQdDgwdCCCGEEEKIrqDLBg9Ec0gbPBA9izPPPDP47ne/6waN0BvhrwzR4IEQQgghhBCiK2jpaQtCiHzYPmEnNXC6SN6WEiGEEEIIIYRoFRo8EKIbccUVV7jtPOi54LQLIYQQQgghhOgOaPBAiG4Cqw6uuuoqpw8C5ZFFSkKFEEIIIYQQolVo8ECIbsK5557rVh0cffTRwT777BPdFUIIIYQQQoiuRwoTlzM4LcKUJKJwj6MpRc/ATq3gyEjpOhBCCCGEEEJ0JzR4IIQQQgghhBBCiFy0bUEIIYQQQgghhBC5aPBACCGEEEIIIYQQuWjwQAghhBBCCCGEELlo8EAIIYQQQgghhBC5aPBACCGEEEIIIYQQuWjwQAghhBBCCCGEELlo8EAIIYQQQgghhBC5aPBACCGEEEIIIYQQuWjwQAghhBBCCCGEELlo8EAIIYQQQgghhBC5aPBACCGEEEIIIYQQuWjwQAghhBBCCCGEELlo8EAIIYQQQgghhBC5aPBACCGEEEIIIYQQuWjwQAghhBBCCCGEELlo8EAIIYQQQgghhBC5aPBACCGEEEIIIYQQuWjwQAghhBBCCCGEELlo8EAIIYQQQgghhBC5aPBACCGEEEIIIYQQuWjwQAghhBBCCCGEELlo8EAIIYQQQgghhBC5aPBACCGEEEIIIYQQuWjwQAghhBBCCCGEELlo8EAIIYQQQgghhBC5aPBACCGEEEIIIYQQuWjwQAghhBBCCCGEELlo8EAIIYQQQgghhBC5aPBACCGEEEIIIYQQuWjwQAghhBBCCCGEELlo8EAIIYQQQgghhBC5aPBACCGEEEIIIYQQuWjwQAghhBBCCCGEELlo8EAIIYQQQgghhBC5aPBACCGEEEIIIYQQuWjwQAghhBBCCCGEELlo8EAIIYQQQgghhBC5aPBACCGEEEIIIYQQuWjwYAXhlFNOCfbdd19nWsXf//73YPz48e6bv/nNb9y9ww8/PPbHz3/+c3evXm666abYje9///vR3e5BmXj+85//7J7LwnfD4q2zmDt532uURvxbZVi7A354GiHPnWuvvdbdv/zyy6M7QgghhBBCtICaWCEYPHhwjeRuZZKfd955tdVWW602bNiw2htvvOHu7bfffrE/xo4d6+7Vy4gRI2I3rrzyyuhu96AonmfMmFEbPnx4ba211orudMR345577onudg5zBzebRSP+rTKs3YGi9C9LnjuPPPKIk5++ffvWHnjggeiuEEIIIYQQzUUrD0RTYBb5iiuuCD766KNg8uTJQe/evd19ViIYrDxgdUI9PP/888GvfvUrdx12oIL99tvPXfcUiIv58+cHb7/9dnRHiPrYfvvtgyOOOCL44x//GJxxxhl15yEhhBBCCCE6gwYPRFP41re+FfzpT38KRo0aFQwdOjS6GwQ777xz0K9fP3f9l7/8Jbj//vvddVnmzJkTvPfee+76i1/8Yjwo0VN44YUXoishOsfHP/7x4KSTTnL56JFHHgmuvvrqyEYIIYQQQojmocEDUTnsyWZQYOWVV3Z7t+nsGKuuumpw4IEHRv8FwX//939HV+W4+eabo6sg+NrXvhZdCbFi0bdvX7f6gJU9l156qdOjIYQQQgghRDPR4IGoFJZQT5kyJfjXv/4VfOELX3BLrJOMGTPGDSzAwoULS3d8ePbZZ59117g7ePBgdy3EigjKR9m6w/YFtggJIYQQQgjRTFZC8UF03VRMazhLbS+66CK3J/72228Pfve737mOJtAhHDJkSLD33nu7//Ogk3r33Xe7ZbvPPfdcdDcI+vTpE2y55ZbBAQccEKyzzjrR3XTww7x584Knn3463oNOp3aDDTZwHVOWxa+++urufhqNvg+E45ZbbgmeeuqpduEgnsq6Acn4xB+bb755sP/++8fxSlxBXpLTkb/++uuDpUuXBq+88oq7Z26VSZu5c+e6uGdGlFUCXCf58MMPgz333DNYsGCB+5+VCnSEijj55JODqVOnuusLL7zQrWrwIQ4eeuih4A9/+EO7uCyTJvjh1ltvddeTJk1KHfQw+K65T3h9suLZ5P+nP/2p+wW2dIDlCcN345577nFxlQV6I+67777YP3Qmkf+xY8c6+V9ppZXcfcJuuiKqph7/JinzLjJJHiGfmUwC8bbRRhuVyutgcfXSSy/FZU6Z8sKXDdKbQawbb7wx9guy8p//+Z/B5z73ucz0T1JVfuX5O+64I1hvvfWCX//616XiQQghhBBCiE4RNkxbAp/ChJ2Y2l133VULG8e13r1713r16hXb8f/WW29dmzBhQu3dd9+N3uwIGsbDRnOtf//+Tuu4vY9Buz9ayEeOHOm+k8UFF1zg/BA2umthwz1+H//gJm7zjbBTFr3RnkbfB/zHM5tsskmHcJgbY8aMyXUDzC9+fPLL/9znO8S7uZ3FZZdd5k4CIEzEoz1vbpVJm7333tu9g//ffvvt6G5Hws5X7P7QoUOju9nwTfxlbr/66quRTZsd/iKspH0yLv00IT5fe+216M1lnHrqqfHzRVr/8+Iyy87upRne8fHdyPILYT722GNdmvjhRRaJJ+QfubH7yW9USRn/ZlH0LrKLTJKuvkxiCDf3sc/L68QDJ3tYXFkewZQpL3zZoOwZOHBgO7+QN+bPn++e9cOTRVX5FW6++eb4OfKvEEIIIYQQzaJlKw9sBnTdddcNPv3pTwdPPvmkm2EbMWJEEDbEnSI5lOExCxc28IPDDjssnmX2YdbvG9/4RvD444+72W1mH3Fj7bXXdor0Hn744WDRokVB2Bh3M3lhQ73DbPlNN93kZrFR6Me3mAEOO/DO7vXXXw9+8YtfuJlc3Nhnn32CH//4x+1mqxt9H5gFPf30093MI+EYNmxYsNNOO7m4wA3CwewkM5K77LKLO9Odmc0k3//+91084Ree5Xvbbruts2NVBHERdpqCN998Mwg7ze5+WpLjzrRp09wSaNzZddddY0WHpA0nBDDTSnhHjx4dXHLJJR3CxAwxfiQdOAWBmdUs3nnnnWDjjTd2Kzb43hNPPJEaPoMZXztZIek2yuNuuOEG5xb+23333eM4AFYj/PKXv4xneMeNG+fC6nPaaae51QyQNQNuhB28zFnhLLtzzz3X/Z599tnuF1jhAOuvv77zk+G7keYXVquQB2bPnu3imjCzFcTyADPRL774oosHZADCzmiPW3nAyRqsCKCsSMqkn9cBGWd1QlKGcOO4445z5QbpnywvkDu+m1de+LKBwk9m+C2fkVfJH8hf2PnPlQ2oKr8afj7acccdg0cffTSyEUIIIYQQomLChmlL4FMYZtj4HT9+fC1s/LsZ5DfeeKMWNvJrYWeo1qdPH2cfdog6zAQy2xo23mO3cCPsFNSWLl3q3MCtxYsX18JOmZuB5RlmG5Mz98x02zfCDof7Nu9jcAs3t99+e/cM7oSdsejNNhp9n5nvQYMGxfZTpkxx/ra4wA3ihvDxDHG27777Rm8vY8mSJe1m46+++ura008/HfsFN3Gbb1i8Y5Iwm2ruEP+kw+OPPx67Q/iYWR02bJh7hlnX8847L3p7Gddee238je9973vR3WyOPvro+PnJkydHd9OxFQ2YsLMX3W2LA8LOffxOevhxgCEshMlkgueTqw+avfLA/GJ2GLuXXKHhu5Hmlx/96EfxzDdyRpj9PID8ITt+muNmsyjybx55755xxhmxXdjhbieTltdZUWDP8HwSVpr4ZU6yvMBNyyM8Q3mRJxu4xXdMxnALN4ys9Ieq8muSIUOGuOd4L+l3IYQQQgghqqK4ZVoR1hDG0Aml0Z3kgw8+cB0je27XXXeNbNrAzhrVWW4ADfFx48bF7px44omRTRvWUdhmm23cN9OYNm2ae65fv361Cy+8MLrbRqPvT5w4MQ7HCSeckLm8n/BZhx23koMpLFvHDsNS6Pfeey+yWQZu+3GBSTJixIjYbtasWZlhonNjHXU6QcmOCh01c2fevHnR3WzoTNnz2223XXS3I3zHOsvEpx/O6667zt0jfs4999xMv3Ofpen2vUWLFkU2bTR78MAwuyx7KOqMb7XVVs6OMBPPaWFGdmwAC4ObzaLIv3nkvbvbbrvFdll5hIEt7JGBgw8+OLrbBvnF5CavvMBt8qF9i/zp48sG8s+gQxZ56V9Vfk1yzDHHxM+yjUEIIYQQQohm0CWnLXzzm990R40l4Ui/sAPglJgBy3/DzoG7hrBj65b4Q5YbwPLhM8880y0LBpSb+ZiytJdfftkpKkyD4wRRksYZ6igl82n0fbYxEA78N2HChGDNNdeMbNpD+EyRIN+888473TWwdN2OLQw7NG7ZO8cgJsHtsGMU/dcR4teWfrONBMV+/tGKPgMHDnQKB4Fl1w8++KC7NuwkBNhhhx2iq2zCTrDbrgG8u3DhQnedhOXoLDEH4tUPJ0vZiWPi+qijjsr0O/f9Je3vv/9+dNWzII4snlkiT/jTwozsHHroodF/PZN//vOf0VWQuQVm0003dVtakAG2F/j85Cc/ieWGrQtZ5QV5hHxoIG9ZkAfWW2+96L/yVJVf0xgwYEB0FbgtHkIIIYQQQjSDlg8e0HDebbfdov86QuN5+PDh7poO8+LFi901sNcYitwAOhXsBYa//OUvTn+AYR3Wt99+Oxg/frwz6BTwn2EAgr3PPItbPo28T2cdbe+AZvS33nrLvZdlOCXA8OMCXQmEC+jQ8L0s6KT369cv+q89nHhggyEbbrih09WQ5g8z/fv3d8+C7e02/IGerAERHzq9dhoDfsjqtF133XXul8GWr3/96+7aoENIHBPXyU4d/sHPaMtH14B/0kFP5YEHHogH0DgKM2uwBHr64AHhMyZPnuwG0tAZwAAKnXEDnSPIAPnA5/7774+uAqfjICnLviEf2qAlOgx89318+a+HqvJrGp/97Gejq8CdSCGEEEIIIUQzaPngAcrh0mbcfEz5IPzP//yP+6UjaLOIZdwAZmYNa7gDHRHrKKBEDmVnKERjEICZdzqaKDTM6kA08j5KB63zh1I0G3zIMr6CvWeeeSa6aj/LX9ShoYO52WabRf+1Z+nSpdFV22BAmh9846/i+O1vfxtdtWHpU0/Hh5UmDAZBWueejp3NppKeWbPHxDWKLDlGkU4m6cBKBPxMenEOPp3Cno4/QEMnMw8GUyxueyIMFNlAnSlURdkgyiIPOuggl7akOYo603gtUjgIrETy5TjNoHwQGMiis5/GJz7xieiqPqrKr2n4A0hZcSGEEEIIIUSjtHzwoEzjG63nxj/+8Q/365/vXrYB/6lPfSq6as/QoUOdtn1ODaBzRaeXUwYYCKADS0eTkxDooLCiIEkj73/44YfRVVtnm3eKjGGdc0CbvlEmPrI63b5/2IqQ9n3f+J2gd999N7pqTz0dVjq4thWCFRkMuviwVcVWRhxzzDHuNwnvjB07Npg4cWJwzTXXuE4m6cAMNX7+f//v/7ml3dYR7ckgZ8Yqq6wSXWXDQFtPBZm99NJLXceewTrkABllBdI999zjBu1I869+9atu0Cg5WGeDdJCU4zTj5y8bSKiKqvJrEX5+FkIIIYQQokq6ROdBEX/4wx+iq2X8x3/8R3TVOMzU0WE977zz3HF3U6ZMcQMBNmPOKgVmu+mgsKIgOQDQ6PsGnVn2a9djjDXWWCO6Kkct57g3g05a2jezzEUXXRS92Rhf+9rX3C+dPfapG3QG0WUAdB5tkMGHlQkM1KAPgoENVqRw/N2pp57qjkLEn9dff71b7r7ddttFb/VcksdjFlEm3RvlM5/5THTVcTVKEbaFBzimNAlL/NFlQBpOnz7dDRKhm4MtLHT2SXOOEWXQiBUJaTCYlZTdIsM3qqQZ+VUIIYQQQoiWgtbEVsCnMGW0vvvazTlhAdBCbvc23nhjd6+IsBMZv5OnBR63OTKNY9zCjoP7fr9+/eJ3+/bt646JzKKe9/GH3UebfGe57bbbYncOPPDA6G42e+yxR/y8jx/XZ599dnS3c5g7YWctulOOsBMYx1fv3r3juOKISzuVIuxAuntJ/KP69tprL3ekJGlhx176HHfccfGzSXnw44ETHPJA/uzZJHna9sHssuwh7wSC448/Pra7/PLLo7vZ2GkDZfJdZ/H9dPjhh0d3iyGd/SMJyUd5ICfPP/+8O8aUkxQ41nBYdBoJhrBy7Khh9zmVohF82eA6j6z0ryq/puGXKbvvvnt0VwghhBBCiGpp+coDFPJl6RIwHn300eiqbeYRUMBnegZYulxmby+z0obNJHLP9sXbEnnc3mKLLdxKAJSvnXzyyU57u32PpeK2B7rR9/0Zzccff7wwLrLYeeedo6tyGtazToXwZ+NRntgIFl4USdYDqwU4RQFYtWGK7lCgaKdSHHbYYe5eEl9PAqsLws6TSwu2QySV0pWdFfeXmCchvZC/rmKnnXaKrtrLdxq+npBm4vvJV+pZBOlsWwuQHV/JJvkbfR+shiFdATlB+Si6L1CQeeSRR7ptDXvttZezJ6wolDRsJRDbHdjC0pVUlV/T8NPYwiyEEEIIIUTVtHzwgI5lmmI8gw6RnapAQ9hXLuafwoBegTxQpGZKEumwW0eSe7Yv3j/60IeOJwMB/nJs2wPd6Pv4AzsgLpLHSCYhPlD+RyfK3/6AOzYQweBEUleAD3YWF0n22GOPWEcB8V7UIeXkAvzDAErymxtttFF01V6xXxlQjscgATBoQCfd3KezmKVAzh+o2GabbaKrjhAuBmuy8E/EQJFlFnR4TQdDZ2i0c0d6WTzddddduYNoM2bMiK6ai+8nFBtaZz8P0vfiiy+O/luWtw22Z5DH0WvAloU0GGxgcNHXkfK3v/0tumo71tMoKi/wD8o7GRREtqumqvyahq/c0T+2UQghhBBCiEqJViA0HT5lJmxE15577rnIZhmvvfZabe+9946f+8EPfhDZtPHII4+4JcjYhR10t3Q5jSVLlrhvmDvTpk2LbGpuKTvL6ovcwH/rrruue45v2hL4Rt+HG2+80d3HbLLJJrlusLWB51iS/b3vfS+yaYNwmTuDBg1KjVPuYWfPYZIcffTRsR3fS3MH8Cf+5TnigOXjPhMmTIjdmTVrVnS3PBbWsKNVmzlzZuzWlVdeGT3REZMHTJl4NJPcDrB48eLYbrPNNut0XBZtWyiyh7xtC3DQQQfF9mzbSNtSQ1wgn/ZcM7ctgO8nvjtx4kSXn9PAb2PGjInTjl/ydpJh0ZYE7C+44ILobnsI+6677hp/+/bbb49sarUnn3wyzqv85rlx1FFHuS0UfGvUqFGRTRtVbFuAqvJrErZB2LPIsRBCCCGEEM2guGVaEX5jmEb6Lrvs4hrzdPQxl112WW3kyJFxh4KOQ3LP+gcffFA74YQTYne23npr12GlM4Ib7HfGzSFDhsR7qUePHt3BnbPOOqudG7zDu75f2HNsbowbNy56s41G32dvt79XPy0cSTfQCbB06dLIhTYIF+HD3uKU97L8YSYJ+8htsMXc8cOEv/gff5obfJc96D48b/bjx4+P7pbHH1Qx/9DpS6afj99pxX9++M3fhIdw9enTJ36W+z6EhTjGjmeJtzlz5jh3CFeWO0nqGTwwvyY7kUWDB+h0ML8yqLT//vt38KufVpi0wQOep6NsphF8P2EYABo+fLiTc2Qbc+yxx7rv4Dd/4GDq1Kkubye588474+cYkPDzCIYwMwhheh2QGfKWgZvohTA/4Qb+sbjCzJgxo50bfG/BggWRC21UNXhQVX5Nsv7667vnkMtknhRCCCGEEKIqilumFeE3hlFsxy+NeTr6GJQKWqMZ+6wZNDrQNOCtU0Hnks4IbgwcODCebcWejgKdmiQo06Nzy3PmD95N8wuNfTrXPo2+D9zDjaxw+G4wkEKnKQ3CZx0SDO8l/UGnIq/DC6wisHTB+GHCXxavmKx4peNi3ymr1NKHjp+9b2FnVUQeyU6rH37zN3FMHKF8055DeWIS4tj/fv/+/Z07vlyRZv7AT5KiwYPzzz8/tje/7rvvvpFtG0WDB4Bf/QGfNL/azD0mbfDAV7SHaRQUhvoyhCHukW2MddDNENcMHPgdfh/kCfu0PIIhzGZHXMybNy96cxm4jWJF3uU5nre4wrCSxtzAP1dffXWHgYyqBg+gqvxqMPBkeaUzA3ZCCCGEEEKUpfEeQ0msIYx5/PHHa5MmTYo7Pxga93R2pk+f7uzzoPM+e/Zs14nzO44Y/qdxTicgrdNuMAjBt+js+A11DP9zH/u0TjI0+j7gBv7k2WQ4cIP4IJ4YSEmbmTX4Bt/ieeskmRvEEScQDBgwIL6fhaUL7iTDhP8sTHnxyqkIPE+HhtnUevn/27tj1qiWMAzAJ1ftrLRRQQVDOhuJiCCCnUKwCf4Bu1jmDwiijVhpZ+EPsNDCStBGELGyFALpUljFzsrm5j3uhGNu9styk02MPA/EbHaTcfbMnJB59+w3w1AmH5O0kUVrfq6aCzlGWUi2hWLemrBVjnF2y9g6r9rczCK0hVftsa12Wjy24Gl4fNOn4VsPJgkP0tcEPu08as8rH/k6fRy+FWM/woPIHMocacdw2K98tHmd/mVejgsOmjw+7lxv45JjkGMx7hxJG69evdq2T2kjxytjkv5s98r9XoYHsVfnazx69Gjz+3LVCQAATMtM/tn4w3PqZmZmRrf6v4b7gmAprtYKg238Qd+dOHGiL5CYquo7+fnzZ194LAXjNhYHo3t/7emeds6fP79jOz9+/Oj7sL6+/lvF8uPHj3cnT57sZmdnyzZ2+/PR2thYPP72PNJG9oY/d+7cf3YN2E7ayZ73379/3yzolzbOnj3bFwP8+PHjZvu3b9/uP28n45G999Of4XPKcU1/dnpOGZOMYfqQwnNPnjwZPTKZ1dXV3wrA3bp1qzt27Njoq/Hy/66tre04F1KMLhX+jx492lfs32q7edXmZp57ivR9/fq1H7PYeiwnOc5pPzs6DI/v8HkO27h69Wo5/u08yve3nQvy/Zk3Z86c2SxOmmOxsVjtbzf52c+fP/dFMF+/ft2fl3shc/Hbt2/9MUwhwtavaPP69OnTff8mMe5cb+MyyTkybGPYp7SR4ozpT+bJdobjnTmQ3TzGmfQ826vzNefayspKP7Zv377d8fcNAAD8XwcWHvD3StX67HaRxWEWSFmc8edaWFjod25wXh4uCcKy80mCkOz8knEEAIBpER6w5/JKbV4JzSunz58/77dhbLLY4WC9efNmdOvXFoXZBvPUqVPdly9fRvdOxljur+G4xY0bN7oPHz50N2/e7Lc3ddUBAADTJDxgKu7fv989fPiwu3jxYvfp06fNqw+G84CD0c6/BAdPnz7tHjx40D179qy7d+9ef/+kjOX+Gv7ezFUHi4uL/e337993165d628DAMC0/DP6DHtqaWmpu3TpUv+2hRcvXozu5U+SOgCpiZArQ+7cuTO6l8Pg8ePHfa2E5eXl7sqVK6N7AQBgelx5wNTkFdG7d+92R44c6d69e9fNzc1tFvDj4LQCfAkPUpjvwoULY4sFVozl/mrjlgKXuUrk8uXL3cuXLycuPAkAALuxb+HBcKFRVQ/n79EWp9lV4Pr16/1OBcDutN0fEhrMz8+P7gUAgOnat/AAAAAAOJzUPAAAAABKwgMAAACgJDwAAAAASsIDAAAAoCQ8AAAAAErCAwAAAKAkPAAAAABKwgMAAACgJDwAAAAASsIDAAAAoCQ8AAAAAErCAwAAAKAkPAAAAABKwgMAAACgJDwAAAAASsIDAAAAoCQ8AAAAAErCAwAAAKAkPAAAAABKwgMAAACgJDwAAAAASsIDAAAAoCQ8AAAAAErCAwAAAKAkPAAAAABKwgMAAACgJDwAAAAASsIDAAAAoCQ8AAAAAErCAwAAAKAkPAAAAABKwgMAAACgJDwAAAAASsIDAAAAoCQ8AAAAAErCAwAAAKAkPAAAAABKwgMAAACgJDwAAAAASsIDAAAAoCQ8AAAAAErCAwAAAKAkPAAAAABKwgMAAACgJDwAAAAASsIDAAAAoCQ8AAAAAErCAwAAAKDQdf8CPNUDdNvjpAwAAAAASUVORK5CYII=;" vertex="1" parent="1">
                    <mxGeometry x="36" y="540" width="755.4" height="293" as="geometry"/>
                </mxCell>
            </root>
        </mxGraphModel>
    </diagram>
</mxfile>